<?xml version="1.0" encoding="utf-8"?>
<svg version="1.1" id="Layer_1" xmlns="http://www.w3.org/2000/svg" xmlns:xlink="http://www.w3.org/1999/xlink" x="0px"
  y="0px" viewBox="0 0 16 11" style="enable-background:new 0 0 16 11;" xml:space="preserve">
  <style>
    .st0 {
      fill: #111111;
    }
  </style>
  <g transform="translate(176.000000, 59.000000)">
    <g
      transform="translate(120.000000, 13.500000) scale(-1, 1) rotate(-90.000000) translate(-120.000000, -13.500000) translate(114.500000, 5.500000)">
      <path class="st0" d="M73,303.5c0,0.3-0.2,0.5-0.5,0.5s-0.5-0.2-0.5-0.5v-15c0-0.3,0.2-0.5,0.5-0.5s0.5,0.2,0.5,0.5
			V303.5z" />
      <path class="st0" d="M72.5,289.2l-4.6,4.6c-0.2,0.2-0.5,0.2-0.7,0c-0.2-0.2-0.2-0.5,0-0.7l5-5
			c0.2-0.2,0.5-0.2,0.7,0l5,5c0.2,0.2,0.2,0.5,0,0.7c-0.2,0.2-0.5,0.2-0.7,0L72.5,289.2z" />
    </g>
  </g>
</svg>
