<?xml version="1.0" encoding="utf-8"?>
<svg version="1.1"  xmlns="http://www.w3.org/2000/svg" xmlns:xlink="http://www.w3.org/1999/xlink" x="0px" y="0px"
	 viewBox="0 0 16 11" xml:space="preserve">
<g transform="translate(176.000000, 59.000000)">

		<g transform="translate(120.000000, 13.500000) scale(-1, 1) rotate(-90.000000) translate(-120.000000, -13.500000) translate(114.500000, 5.500000)">
		<path d="M72.1,288.5c0-0.3,0.2-0.5,0.5-0.5s0.5,0.2,0.5,0.5v15c0,0.3-0.2,0.5-0.5,0.5s-0.5-0.2-0.5-0.5V288.5z"/>
		<path d="M72.6,302.8l4.6-4.6c0.2-0.2,0.5-0.2,0.7,0s0.2,0.5,0,0.7l-5,5c-0.2,0.2-0.5,0.2-0.7,0l-5-5c-0.2-0.2-0.2-0.5,0-0.7
			s0.5-0.2,0.7,0L72.6,302.8z"/>
	</g>
</g>
</svg>
