<?xml version="1.0" encoding="utf-8"?>
<!-- Generator: Adobe Illustrator 25.0.1, SVG Export Plug-In . SVG Version: 6.00 Build 0)  -->
<svg version="1.1" id="Capa_1" xmlns="http://www.w3.org/2000/svg" xmlns:xlink="http://www.w3.org/1999/xlink" x="0px" y="0px"
	 viewBox="0 0 337.1 337.1" style="enable-background:new 0 0 337.1 337.1;" xml:space="preserve">
<style type="text/css">
	.st0{fill:#010101;}
	.st1{fill:#FFFFFF;}
</style>
<path class="st0" d="M168.5,0C75.6,0,0,75.6,0,168.5S75.6,337,168.5,337S337,261.4,337,168.5C337.1,75.6,261.5,0,168.5,0z"/>
<path class="st1" d="M255.1,203.2c-2,2-4.7,3-7.3,3c-2.7,0-5.3-1-7.3-3l-71.9-71.9l-71.9,71.9c-4,4-10.6,4-14.7,0s-4-10.6,0-14.7
	l79.4-79.3c4-4,10.6-4,14.7,0l79.4,79.3C259.2,192.6,259.2,199.2,255.1,203.2z"/>
</svg>
