<?xml version="1.0" encoding="utf-8"?>
<!-- Generator: Adobe Illustrator 25.0.1, SVG Export Plug-In . SVG Version: 6.00 Build 0)  -->
<svg version="1.1" id="Layer_1" xmlns="http://www.w3.org/2000/svg" xmlns:xlink="http://www.w3.org/1999/xlink" x="0px" y="0px"
	 viewBox="0 0 34 38.8" style="enable-background:new 0 0 34 38.8;" xml:space="preserve">
<path id="Shape_3_" d="M0,0v0.2C0.2,2.1,0.3,4,0.5,5.9C1,12.1,1.7,18.4,2.2,24.7c0.3,3.4,0.6,6.8,0.9,10.2c2.5,0.7,5,1.4,7.5,2.1
	c2.1,0.6,4.2,1.2,6.4,1.8l0,0c2.2-0.7,4.5-1.2,6.7-1.9c2.4-0.6,4.8-1.4,7.2-2c0.4-4.5,0.8-9,1.2-13.6C32.7,14.2,33.3,7.1,34,0
	C22.7,0,11.3,0,0,0z M30.9,2.8c-0.4,4.6-0.8,9.2-1.2,13.8c-0.4,4-0.7,8-1.1,12.1c-0.1,1.3-0.2,2.7-0.4,4c-3.3,0.9-6.7,1.8-10,2.8
	c-0.4,0.1-0.8,0.2-1.2,0.3c0-1.5,0.1-2.9-0.1-4.4c-0.2,0-0.4-0.1-0.6-0.1c-1.8-0.5-3.5-0.9-5.3-1.4c-1.1-0.3-2.3-0.6-3.5-0.9
	c-0.3-2.2-0.5-4.4-0.6-6.6c1.2,0,2.3,0,3.5,0c0.2,0,0.5,0,0.7,0.1c0.1,1.2,0.2,2.3,0.3,3.4c0.8,0.2,1.6,0.3,2.5,0.5
	c0.5,0.1,1,0.2,1.6,0.3c0.5,0.1,1,0.2,1.5,0.3c0.1-2.4,0-4.8,0-7.2c-1.5,0-3.1,0-4.6,0c-1.9,0-3.9,0-5.8,0c-0.1-1.4-0.3-2.9-0.4-4.3
	c0.2-0.2,0.5-0.3,0.8-0.4c3.2-1.4,6.4-2.7,9.5-4.2c-3.6-0.1-7.2,0-10.8-0.1C5.6,9.5,5.4,8.2,5.4,6.9l0,0H17c0-1.4,0-2.7,0-4.1h7
	C26.3,2.8,28.6,2.8,30.9,2.8L30.9,2.8z"/>
<path style="opacity:0.3;enable-background:new    ;" d="M30.9,2.8c-0.4,4.6-0.8,9.2-1.2,13.8c-0.4,4-0.7,8-1.1,12.1
	c-0.1,1.3-0.2,2.7-0.4,4c-3.3,0.9-6.7,1.8-10,2.8c-0.4,0.1-0.8,0.2-1.2,0.3c0-1.5,0.1-2.9-0.1-4.4H17c0.8-0.2,1.6-0.4,2.3-0.6
	c1.5-0.4,3.1-0.8,4.6-1.2c0.8-0.2,1.5-0.4,2.3-0.6c0.4-4.4,0.8-8.8,1.1-13.3c-2.6,0-5.3,0-7.9,0c-0.4,0-0.8,0-1.1,0
	c1.4-0.7,2.9-1.3,4.4-2c1.4-0.6,2.8-1.2,4.2-1.9c0.3-0.1,0.6-0.2,0.8-0.4c0.1-0.3,0.1-0.7,0.1-1.1C28,9.1,28.2,8,28.2,6.9
	c-3.7,0-7.5,0-11.2,0c0-1.4,0-2.7,0-4.1C17,2.8,30.9,2.8,30.9,2.8z M17,19.8c0,2.5,0,4.8,0,7.2c0.6-0.3,1.3-0.4,1.9-0.6
	c1.1-0.3,2.2-0.6,3.3-1c0.1-1.9,0.2-3.7,0.3-5.5C20.7,19.8,18.8,19.7,17,19.8z"/>
</svg>
