<?xml version="1.0" encoding="utf-8"?>
<!-- Generator: Adobe Illustrator 25.0.1, SVG Export Plug-In . SVG Version: 6.00 Build 0)  -->
<svg version="1.1" id="Layer_1" xmlns="http://www.w3.org/2000/svg" xmlns:xlink="http://www.w3.org/1999/xlink" x="0px" y="0px"
	 viewBox="0 0 33.8 38" style="enable-background:new 0 0 33.8 38;" xml:space="preserve">
<path d="M11.3,11.7l0.2,3.8h5.4v-3.8H11.3z M12.3,25l4.6,1.2v-6.3H12L12.3,25z M11.3,11.7l0.2,3.8h5.4v-3.8H11.3z M0,0l3.2,34.2
	L16.9,38l13.7-3.8L33.8,0H0z M28,32l-11.2,3.2v-4.5l-8.5-2.2L6.5,7.3h10.4V2.8h13.8L28,32z M12.3,25l4.6,1.2v-6.3H12L12.3,25z
	 M11.5,15.5h5.4v-3.8h-5.6L11.5,15.5z M12,19.9l0.3,5.1l4.6,1.2v-6.3C16.9,19.9,12,19.9,12,19.9z"/>
<path style="opacity:0.3;fill-rule:evenodd;clip-rule:evenodd;enable-background:new    ;" d="M21.8,19.9l-0.3,5.2L17,26.2h-0.1
	v-6.3C16.9,19.9,21.8,19.9,21.8,19.9z M16.9,2.8v4.5h10.2l-0.3,4.4h-9.9v3.8h9.4l-1.1,12.8l-8.4,2.4v4.5L28,32l2.7-29.2
	C30.7,2.8,16.9,2.8,16.9,2.8z"/>
</svg>
