<?xml version="1.0" encoding="utf-8"?>
<!-- Generator: Adobe Illustrator 25.0.1, SVG Export Plug-In . SVG Version: 6.00 Build 0)  -->
<svg version="1.1" id="Layer_1" xmlns="http://www.w3.org/2000/svg" xmlns:xlink="http://www.w3.org/1999/xlink" x="0px" y="0px"
	 viewBox="0 0 34 38.6" style="enable-background:new 0 0 34 38.6;" xml:space="preserve">
<path d="M0,0l3.1,34.7L17,38.6l13.9-3.9L34,0H0z M28.3,32.5L17,35.6v-4.4l-8.7-2.4L7.5,20l-0.4-4.2v-0.1l1.2-8.8L17,4.5V2.9h13.9
	L28.3,32.5z M12.2,10.2L17,8.9v5.7l-5.5,1.1L12.2,10.2z M17,18.9v7.9l-4.7-1.3L11.8,20L17,18.9z"/>
<path style="opacity:0.3;enable-background:new    ;" d="M30.9,2.9l-2.6,29.6L17,35.6v-4.4l8.7-2.4l0.1-0.7l1.1-11.2L17,14.6V8.9
	l8.7,2.5V6.9L17,4.5V2.9H30.9z M17,26.8l4.8-1.3l0.5-5.5L17,18.9V26.8z"/>
</svg>
