<?xml version="1.0" encoding="utf-8"?>
<!-- Generator: Adobe Illustrator 25.0.1, SVG Export Plug-In . SVG Version: 6.00 Build 0)  -->
<svg version="1.1" id="Layer_1" xmlns="http://www.w3.org/2000/svg" xmlns:xlink="http://www.w3.org/1999/xlink" x="0px" y="0px"
	 viewBox="0 0 34 38.6" style="enable-background:new 0 0 34 38.6;" xml:space="preserve">
<path d="M11.8,20l0.5,5.5l4.7,1.3v-7.9L11.8,20z M0,0l3.1,34.7L17,38.6l13.9-3.9L34,0H0z M8.3,28.8L7.5,20l-0.4-4.2v-0.1l1.2-8.8
	L17,4.5l8.7,2.4v4.5L17,8.9l-4.8,1.3l-0.7,5.5l5.5-1.1l9.9,2.3l-1.1,11.2l-0.1,0.7L17,31.2L8.3,28.8z M21.8,25.5l0.5-5.5L17,18.9
	L11.8,20l0.5,5.5l4.7,1.3L21.8,25.5z"/>
<path style="fill:#F8DC3D;" d="M21.8,25.5L17,26.8v-7.9l5.3,1.1L21.8,25.5z M17,2.9v1.6l8.7,2.4v4.5L17,8.9v5.7l9.9,2.3l-1.1,11.2
	l-0.1,0.7L17,31.2v4.4l11.3-3.1l2.6-29.6C30.9,2.9,17,2.9,17,2.9z"/>
</svg>
