<?xml version="1.0" encoding="utf-8"?>
<!-- Generator: Adobe Illustrator 25.0.1, SVG Export Plug-In . SVG Version: 6.00 Build 0)  -->
<svg version="1.1" id="Layer_1" xmlns="http://www.w3.org/2000/svg" xmlns:xlink="http://www.w3.org/1999/xlink" x="0px" y="0px"
	 viewBox="0 0 34 38.6" style="enable-background:new 0 0 34 38.6;" xml:space="preserve">
<g>
	<path d="M0,0l3.1,34.7L17,38.6l13.9-3.9L34,0H0z M28.3,32.5L17,35.6v-4.4l-8.7-2.4L7.5,20l-0.4-4.2v-0.1l1.2-8.8L17,4.5V2.9h13.9
		L28.3,32.5z"/>
	<polygon points="11.5,15.7 17,14.6 17,8.9 12.2,10.2 	"/>
	<polygon points="11.8,20 12.3,25.5 17,26.8 17,18.9 	"/>
	<polygon style="fill:#F8DC3D;" points="17,26.8 21.8,25.5 22.3,20 17,18.9 	"/>
	<polygon style="fill:#F8DC3D;" points="17,2.9 17,4.5 25.7,6.9 25.7,11.4 17,8.9 17,14.6 26.9,16.9 25.8,28.1 25.7,28.8 17,31.2 
		17,35.6 28.3,32.5 30.9,2.9 	"/>
</g>
</svg>
