<?xml version="1.0" encoding="utf-8"?>
<!-- Generator: Adobe Illustrator 25.0.1, SVG Export Plug-In . SVG Version: 6.00 Build 0)  -->
<svg version="1.1" id="Layer_1" xmlns="http://www.w3.org/2000/svg" xmlns:xlink="http://www.w3.org/1999/xlink" x="0px" y="0px"
	 viewBox="0 0 33.9 38.6" style="enable-background:new 0 0 33.9 38.6;" xml:space="preserve">
<path d="M10.9,11.3l0.4,4.4h5.6v-4.4C16.9,11.3,10.9,11.3,10.9,11.3z M10.9,11.3l0.4,4.4h5.6v-4.4C16.9,11.3,10.9,11.3,10.9,11.3z
	 M0,0l3.1,34.7l13.8,3.8l13.9-3.9L33.9,0H0z M28.2,32.5L17,35.6v-4.4l-8.7-2.4l-0.6-6.7H12l0.3,3.4l4.7,1.3l0,0V20H7.5L6.3,7.1H17
	V2.8h13.8L28.2,32.5z M11.3,15.7h5.6v-4.4h-6L11.3,15.7z"/>
<path style="opacity:0.3;enable-background:new    ;" d="M17,20v6.8l4.8-1.2l0.5-5.5L17,20z M17,2.8v4.3h10.7l-0.4,4.2H16.9v4.4h10
	l-1.2,13.1L17,31.2v4.4l11.2-3.1l2.6-29.7C30.8,2.8,17,2.8,17,2.8z"/>
</svg>
