<?xml version="1.0" encoding="utf-8"?>
<!-- Generator: Adobe Illustrator 25.0.1, SVG Export Plug-In . SVG Version: 6.00 Build 0)  -->
<svg version="1.1" id="Layer_1" xmlns="http://www.w3.org/2000/svg" xmlns:xlink="http://www.w3.org/1999/xlink" x="0px" y="0px"
	 viewBox="0 0 34 38.6" style="enable-background:new 0 0 34 38.6;" xml:space="preserve">
<path d="M0,0l3.1,34.7L17,38.6l13.9-3.9L34,0H0z M15.7,30.9L5.5,28.2v-3.9l6.5,1.8v-19h3.7V30.9z M28.3,32.5L17,35.6V2.9h13.9
	L28.3,32.5z"/>
<path style="fill:#F8DC3D;" d="M17,2.9v32.7l11.3-3.1l2.6-29.6H17z M22,10.8l0.1,6.5l6-0.9l-1,12l-8.7,2.4v-3.9l5.6-1.6l0.3-4.8
	l-5.9,1V7.1h10.6l-0.4,3.7H22z"/>
</svg>
