<?xml version="1.0" encoding="utf-8"?>
<!-- Generator: Adobe Illustrator 25.0.1, SVG Export Plug-In . SVG Version: 6.00 Build 0)  -->
<svg version="1.1" id="Layer_1" xmlns="http://www.w3.org/2000/svg" xmlns:xlink="http://www.w3.org/1999/xlink" x="0px" y="0px"
	 viewBox="0 0 34 34" style="enable-background:new 0 0 34 34;" xml:space="preserve">
<g>
	<g>
		<path d="M17,34c9.4,0,17-7.6,17-17c0-9.4-7.6-17-17-17C7.6,0,0,7.6,0,17C0,26.4,7.6,34,17,34z"/>
		<path style="fill:#61DAFB;" d="M16.9,19.3c1.3,0,2.3-1,2.3-2.3s-1-2.3-2.3-2.3c-1.3,0-2.3,1-2.3,2.3S15.6,19.3,16.9,19.3z"/>
		<path style="fill:#61DAFB;" d="M29.8,17c0-1.7-2.1-3.4-5.5-4.3c0.2-0.5,0.3-1.1,0.4-1.6c0.5-2.7,0-4.5-1.3-5.2
			C21.8,5,19.5,6.1,17,8.6c-2.5-2.4-4.9-3.4-6.5-2.6c-1.6,0.9-1.8,3.5-0.9,6.9c-3.4,0.9-5.5,2.5-5.5,4.3c0,1.8,2.1,3.4,5.5,4.3
			c-0.8,3.4-0.6,6,0.9,6.9c0.4,0.2,0.7,0.3,1.2,0.3c1.5,0,3.4-1.1,5.1-2.9c1.9,1.9,3.7,2.9,5.1,2.9c0.5,0,0.8-0.1,1.2-0.3
			c1.6-0.9,1.8-3.5,0.9-6.9C27.6,20.4,29.8,18.8,29.8,17z M22.9,6.6c0.9,0.5,1.3,2.1,0.9,4.4c-0.1,0.5-0.2,1.1-0.4,1.6
			c-1.1-0.3-2.4-0.5-3.7-0.6c-0.7-0.9-1.6-1.9-2.4-2.7c1.8-1.7,3.5-2.7,4.7-2.7C22.4,6.4,22.7,6.5,22.9,6.6z M20.7,19.2
			c-0.5,0.7-0.8,1.5-1.3,2c-0.7,0.1-1.6,0.1-2.5,0.1c-0.8,0-1.6,0-2.5-0.1c-0.5-0.6-0.9-1.4-1.3-2c-0.5-0.7-0.8-1.5-1.1-2.2
			c0.3-0.6,0.7-1.5,1.1-2.2c0.5-0.7,0.8-1.5,1.3-2c0.7-0.1,1.6-0.1,2.5-0.1c0.8,0,1.6,0,2.5,0.1c0.5,0.6,0.9,1.4,1.3,2
			c0.5,0.7,0.8,1.5,1.1,2.2C21.5,17.7,21.1,18.4,20.7,19.2z M22.2,17.9c0.5,1,0.7,1.9,1.1,2.8c-0.9,0.2-1.9,0.4-2.9,0.5
			c0.3-0.5,0.6-1.1,1-1.6C21.7,19,22,18.4,22.2,17.9z M16.9,24.4c-0.6-0.6-1.3-1.5-1.9-2.3c0.6,0,1.2,0.1,1.9,0.1
			c0.6,0,1.3,0,1.9-0.1C18.2,22.9,17.5,23.7,16.9,24.4z M13.5,21.2c-1.1-0.2-2-0.3-2.9-0.5c0.3-0.9,0.6-1.8,1.1-2.8
			c0.3,0.5,0.6,1.1,0.9,1.6C12.8,20.1,13.2,20.6,13.5,21.2z M11.6,16.2c-0.5-1-0.7-1.9-1.1-2.8c0.9-0.2,1.9-0.4,2.9-0.5
			c-0.3,0.5-0.6,1.1-1,1.6C12.1,15,11.9,15.5,11.6,16.2z M16.9,9.6c0.6,0.6,1.3,1.5,1.9,2.3c-0.6,0-1.3-0.1-1.9-0.1s-1.3,0-1.9,0.1
			C15.6,11,16.4,10.3,16.9,9.6z M21.3,14.4c-0.3-0.5-0.6-1.1-1-1.6c1.1,0.2,2,0.3,2.9,0.5c-0.3,0.9-0.6,1.8-1.1,2.8
			C22,15.5,21.7,15,21.3,14.4z M11,6.6c0.2-0.1,0.5-0.2,0.8-0.2c1.2,0,2.9,0.9,4.7,2.7c-0.7,0.8-1.6,1.8-2.4,2.9
			c-1.4,0.2-2.6,0.3-3.7,0.6C9.6,9.5,9.8,7.2,11,6.6z M4.8,17c0-1.3,1.8-2.7,4.9-3.5c0.3,1.1,0.7,2.3,1.4,3.5
			c-0.5,1.2-1,2.4-1.4,3.5C6.8,19.6,4.8,18.3,4.8,17z M11,27.5c-1.1-0.6-1.4-2.9-0.5-6c1.1,0.3,2.4,0.5,3.7,0.6
			c0.7,1.1,1.6,2,2.4,2.9C14.1,27.1,12.1,28,11,27.5z M22.9,27.5c-1.1,0.6-3.2-0.3-5.5-2.5c0.7-0.8,1.6-1.8,2.4-2.9
			c1.4-0.2,2.6-0.3,3.7-0.6C24.3,24.5,24,26.8,22.9,27.5z M24,20.5c-0.3-1.1-0.7-2.3-1.4-3.5c0.5-1.2,1-2.4,1.4-3.5
			c3.1,0.8,4.9,2.2,4.9,3.5S27.1,19.6,24,20.5z"/>
	</g>
</g>
</svg>
