<?xml version="1.0" encoding="utf-8"?>
<!-- Generator: Adobe Illustrator 25.0.1, SVG Export Plug-In . SVG Version: 6.00 Build 0)  -->
<svg version="1.1" id="Layer_1" xmlns="http://www.w3.org/2000/svg" xmlns:xlink="http://www.w3.org/1999/xlink" x="0px" y="0px"
	 viewBox="0 0 34 34" style="enable-background:new 0 0 34 34;" xml:space="preserve">
<path d="M17,0C7.6,0,0,7.6,0,17s7.6,17,17,17s17-7.6,17-17S26.4,0,17,0z M24,21.5c0.9,3.4,0.7,6-0.9,6.9c-0.4,0.2-0.7,0.3-1.2,0.3
	c-1.4,0-3.2-1-5.1-2.9c-1.7,1.8-3.6,2.9-5.1,2.9c-0.5,0-0.8-0.1-1.2-0.3c-1.5-0.9-1.7-3.5-0.9-6.9c-3.4-0.9-5.5-2.5-5.5-4.3
	s2.1-3.4,5.5-4.3c-0.9-3.4-0.7-6,0.9-6.9c1.6-0.8,4,0.2,6.5,2.6c2.5-2.5,4.8-3.6,6.4-2.7c1.3,0.7,1.8,2.5,1.3,5.2
	c-0.1,0.5-0.2,1.1-0.4,1.6c3.4,0.9,5.5,2.6,5.5,4.3C29.8,18.8,27.6,20.4,24,21.5z M24,13.5c-0.4,1.1-0.9,2.3-1.4,3.5
	c0.7,1.2,1.1,2.4,1.4,3.5c3.1-0.9,4.9-2.2,4.9-3.5S27.1,14.3,24,13.5z M23.4,12.6c0.2-0.5,0.3-1.1,0.4-1.6c0.4-2.3,0-3.9-0.9-4.4
	c-0.2-0.1-0.5-0.2-0.9,0c-1.2,0-2.9,1-4.7,2.7c0.8,0.8,1.7,1.8,2.4,2.7C21,12.1,22.3,12.3,23.4,12.6z M19.8,22.1
	c-0.8,1.1-1.7,2.1-2.4,2.9c2.3,2.2,4.4,3.1,5.5,2.5c1.1-0.7,1.4-3,0.6-6C22.4,21.8,21.2,21.9,19.8,22.1z M20.3,12.8
	c0.4,0.5,0.7,1.1,1,1.6c0.4,0.6,0.7,1.1,0.8,1.7c0.5-1,0.8-1.9,1.1-2.8C22.3,13.1,21.4,13,20.3,12.8z M22.2,17.9
	c-0.2,0.5-0.5,1.1-0.8,1.7c-0.4,0.5-0.7,1.1-1,1.6c1-0.1,2-0.3,2.9-0.5C22.9,19.8,22.7,18.9,22.2,17.9z M16.9,21.3
	c0.9,0,1.8,0,2.5-0.1c0.5-0.5,0.8-1.3,1.3-2c0.4-0.8,0.8-1.5,1.1-2.2c-0.3-0.7-0.6-1.5-1.1-2.2c-0.4-0.6-0.8-1.4-1.3-2
	c-0.9-0.1-1.7-0.1-2.5-0.1c-0.9,0-1.8,0-2.5,0.1c-0.5,0.5-0.8,1.3-1.3,2c-0.4,0.7-0.8,1.6-1.1,2.2c0.3,0.7,0.6,1.5,1.1,2.2
	c0.4,0.6,0.8,1.4,1.3,2C15.3,21.3,16.1,21.3,16.9,21.3z M16.9,14.7c1.3,0,2.3,1,2.3,2.3s-1,2.3-2.3,2.3c-1.3,0-2.3-1-2.3-2.3
	S15.6,14.7,16.9,14.7z M16.9,22.2c-0.7,0-1.3-0.1-1.9-0.1c0.6,0.8,1.3,1.7,1.9,2.3c0.6-0.7,1.3-1.5,1.9-2.3
	C18.2,22.2,17.5,22.2,16.9,22.2z M16.9,11.8c0.6,0,1.3,0.1,1.9,0.1c-0.6-0.8-1.3-1.7-1.9-2.3c-0.5,0.7-1.3,1.4-1.9,2.3
	C15.6,11.8,16.3,11.8,16.9,11.8z M10.5,21.5c-0.9,3.1-0.6,5.4,0.5,6c1.1,0.5,3.1-0.4,5.6-2.5c-0.8-0.9-1.7-1.8-2.4-2.9
	C12.9,22,11.6,21.8,10.5,21.5z M14.1,12c0.8-1.1,1.7-2.1,2.4-2.9c-1.8-1.8-3.5-2.7-4.7-2.7c-0.3,0-0.6,0.1-0.8,0.2
	c-1.2,0.6-1.4,2.9-0.6,6C11.5,12.3,12.7,12.2,14.1,12z M13.5,21.2c-0.3-0.6-0.7-1.1-0.9-1.7c-0.3-0.5-0.6-1.1-0.9-1.6
	c-0.5,1-0.8,1.9-1.1,2.8C11.5,20.9,12.4,21,13.5,21.2z M13.4,12.9c-1,0.1-2,0.3-2.9,0.5c0.4,0.9,0.6,1.8,1.1,2.8
	c0.3-0.7,0.5-1.2,0.8-1.7C12.8,14,13.1,13.4,13.4,12.9z M9.7,13.5c-3.1,0.8-4.9,2.2-4.9,3.5s2,2.6,4.9,3.5c0.4-1.1,0.9-2.3,1.4-3.5
	C10.4,15.8,10,14.6,9.7,13.5z"/>
</svg>
