<?xml version="1.0" encoding="utf-8"?>
<!-- Generator: Adobe Illustrator 25.0.1, SVG Export Plug-In . SVG Version: 6.00 Build 0)  -->
<svg version="1.1" id="Layer_1" xmlns="http://www.w3.org/2000/svg" xmlns:xlink="http://www.w3.org/1999/xlink" x="0px" y="0px"
	 viewBox="0 0 34 34" style="enable-background:new 0 0 34 34;" xml:space="preserve">
<g>
	<g>
		<path style="fill:#0073AA;" d="M17,1c3.2,0,6.3,1,8.9,2.7s4.6,4.2,5.8,7c2.1,5,1.5,10.7-1.5,15.1c-1.7,2.6-4.2,4.6-7,5.8
			c-5,2.1-10.7,1.5-15.1-1.5c-2.6-1.7-4.6-4.2-5.8-7C0.2,18.1,0.8,12.4,3.8,8c1.7-2.6,4.2-4.6,7-5.8C12.7,1.4,14.8,1,17,1z M17,0
			C7.6,0,0,7.6,0,17s7.6,17,17,17s17-7.6,17-17S26.4,0,17,0z"/>
		<path style="fill:#0073AA;" d="M2.8,17c0,5.4,3.1,10.4,8,12.8L4,11.2C3.2,13.1,2.8,15,2.8,17z M26.5,16.3c0-1.8-0.6-3-1.2-3.9
			c-0.5-1-1.4-2.2-1.4-3.3s1-2.5,2.4-2.5h0.2c-5.8-5.3-14.7-4.9-20,0.9C6,8.1,5.5,8.7,5.1,9.3H6c1.5,0,3.8-0.2,3.8-0.2
			c0.8-0.1,0.8,1.1,0.1,1.2c0,0-0.8,0.1-1.6,0.1l5.2,15.4l3.1-9.3l-2.3-6.2c-0.8-0.1-1.5-0.1-1.5-0.1C12,10.1,12.1,9,12.9,9
			c0,0,2.3,0.2,3.7,0.2C18,9.2,20.4,9,20.4,9c0.8-0.1,0.8,1.1,0.1,1.2c0,0-0.8,0.1-1.6,0.1L24,25.5l1.5-4.6
			C26.1,18.9,26.5,17.5,26.5,16.3z M17.2,18.2L13,30.6c2.9,0.8,5.9,0.8,8.7-0.2l-0.1-0.2L17.2,18.2z M29.4,10.2
			c0.1,0.5,0.1,1,0.1,1.5c0,1.4-0.3,3.1-1.1,5.1l-4.3,12.5C30.7,25.4,33.1,16.9,29.4,10.2z"/>
	</g>
</g>
</svg>
