<?xml version="1.0" encoding="utf-8"?>
<!-- Generator: Adobe Illustrator 25.0.1, SVG Export Plug-In . SVG Version: 6.00 Build 0)  -->
<svg version="1.1" id="Layer_1" xmlns="http://www.w3.org/2000/svg" xmlns:xlink="http://www.w3.org/1999/xlink" x="0px" y="0px"
	 viewBox="0 0 511 511" style="enable-background:new 0 0 511 511;" xml:space="preserve">
<circle cx="255.5" cy="255.5" r="78.7"/>
<path d="M510.5,150.2c-1.2-27.2-5.6-45.8-11.9-62c-6.5-17.2-16.5-32.5-29.5-45.3c-12.8-13-28.3-23.1-45.2-29.4
	c-16.3-6.3-34.8-10.7-62-11.9C334.5,0.3,325.8,0,256.4,0s-78.1,0.3-105.3,1.5c-27.2,1.2-45.8,5.6-62,11.9
	C72,19.9,56.6,29.8,43.8,42.9c-13,12.8-23.1,28.3-29.4,45.2c-6.3,16.3-10.7,34.8-11.9,62c-1.3,27.4-1.6,36-1.6,105.4
	s0.3,78.1,1.5,105.3c1.2,27.2,5.6,45.8,11.9,62c6.5,17.2,16.6,32.5,29.5,45.3c12.8,13,28.3,23.1,45.2,29.4
	c16.3,6.3,34.8,10.7,62,11.9c27.2,1.2,35.9,1.5,105.3,1.5s78.1-0.3,105.3-1.5c27.2-1.2,45.8-5.6,62-11.9
	c34.3-13.3,61.5-40.4,74.8-74.8c6.3-16.3,10.7-34.8,11.9-62c1.2-27.3,1.5-35.9,1.5-105.3S511.7,177.5,510.5,150.2z M255.5,382.2
	c-69.9,0-126.7-56.8-126.7-126.7s56.8-126.7,126.7-126.7s126.7,56.8,126.7,126.7S325.4,382.2,255.5,382.2z M402.9,153.3
	c-24.4,0-44.2-19.8-44.2-44.2s19.8-44.2,44.2-44.2s44.2,19.8,44.2,44.2S427.3,153.3,402.9,153.3z M402.9,96.9
	c-6.7,0-12.2,5.5-12.2,12.2c0,6.7,5.5,12.2,12.2,12.2c6.7,0,12.2-5.5,12.2-12.2C415.1,102.4,409.6,96.9,402.9,96.9z"/>
</svg>
