<?xml version="1.0" encoding="utf-8"?>
<!-- Generator: Adobe Illustrator 25.0.1, SVG Export Plug-In . SVG Version: 6.00 Build 0)  -->
<svg version="1.1" id="Bold" xmlns="http://www.w3.org/2000/svg" xmlns:xlink="http://www.w3.org/1999/xlink" x="0px" y="0px"
	 viewBox="0 0 467.8 512" style="enable-background:new 0 0 467.8 512;" xml:space="preserve">
<path d="M415,50.7L415,50.7c-65.6-62.5-287.2-71.8-365.7,2.8c-35.2,36.5-47.7,90-49,156.2C-1.1,276-2.7,400.1,113,433.8h0.1
	l-0.1,51.4c0,0-0.8,20.8,12.5,25c15.2,4.9,22.1-4.8,69.5-61.3c79.2,6.9,140-8.9,146.9-11.2c16-5.4,106.5-17.3,121.1-141.5
	C478.2,168.2,455.7,87.3,415,50.7z M350.1,328.5v0.1c-10.8,19.7-31,41.4-51.8,34.5l-0.2-0.3c-21.1-6.1-70.8-32.6-102.2-58.4
	c-66.8-54.6-87.8-126.9-99.2-149.6c-6.7-21.5,14.2-42.4,33.3-53.6h0.2c9.2-5,18-3.3,23.9,4c5.6,7.8,16.6,18,32.9,47.5
	c6.1,11.3,2.3,22.8-3.7,27.5l-12,9.9c-6.1,5.1-5.3,14.5-5.3,14.5s17.8,69.6,84.3,87.2c0,0,9.1,0.8,14-5.5l9.6-12.4
	c4.6-6.2,15.7-10.1,26.6-3.8c14.7,8.6,33.4,21.9,45.8,34C353.3,310,354.9,319,350.1,328.5z M238.6,131.1c-8.5-0.6-7.6-14,0.9-13.4
	c58,4.4,88.9,45.6,87.8,95.7c-0.1,8.9-13.1,8.5-12.9-0.3C315.4,169.3,288.9,135,238.6,131.1z M294.1,201.5
	c0.4,8.9-12.5,9.5-12.9,0.6c-1.1-22.8-11.4-33.8-32.6-35.1c-8.6-0.5-7.8-13.8,0.7-13.3C277.2,155.2,292.7,171.8,294.1,201.5z
	 M348.5,227.1c-0.6-84.3-54.9-130.2-120.8-130.7c-8.5-0.1-8.5-13.4,0-13.4c73.7,0.5,133,53.2,133.7,144h0
	C361.5,235.9,348.5,236,348.5,227.1z"/>
</svg>
