<?xml version="1.0" encoding="UTF-8"?>
<svg width="34px" height="48px" viewBox="0 0 34 48" version="1.1" xmlns="http://www.w3.org/2000/svg" xmlns:xlink="http://www.w3.org/1999/xlink">
    <g id="Page-1" stroke="none" stroke-width="1" fill="none" fill-rule="evenodd">
        <g id="shockolada" transform="translate(-984.000000, -1424.000000)">
            <g id="HTML5_logo_and_wordmark" transform="translate(984.000000, 1424.000000)" fill-rule="nonzero">
                <path d="M3.21318681,0 L5.36153846,0 L5.36153846,2.1375 L7.34175824,2.1375 L7.34175824,0 L9.49010989,0 L9.49010989,6.46875 L7.34175824,6.46875 L7.34175824,4.3125 L5.38021978,4.3125 L5.38021978,6.46875 L3.21318681,6.46875 M12.3296703,2.15625 L10.4335165,2.15625 L10.4335165,0 L16.3835165,0 L16.3835165,2.15625 L14.478022,2.15625 L14.478022,6.46875 L12.3296703,6.46875 M17.3269231,0 L19.578022,0 L20.9604396,2.278125 L22.3428571,0 L24.593956,0 L24.593956,6.46875 L22.4456044,6.46875 L22.4456044,3.2625 L20.9417582,5.5875 L19.4379121,3.2625 L19.4379121,6.46875 L17.3269231,6.46875 M25.6587912,0 L27.8071429,0 L27.8071429,4.33125 L30.8521978,4.33125 L30.8521978,6.46875 L25.6587912,6.46875" id="Shape" fill="#000000"></path>
                <polyline id="Shape" fill="#E44D26" points="3.13846154 44.15625 0.056043956 9.43125 33.943956 9.43125 30.8615385 44.1375 16.971978 48"></polyline>
                <polyline id="Shape" fill="#F16529" points="17 45.046875 17 12.28125 30.8521978 12.28125 28.2087912 41.90625"></polyline>
                <path d="M6.35164835,16.528125 L17,16.528125 L17,20.784375 L11.0032967,20.784375 L11.3956044,25.14375 L17,25.14375 L17,29.390625 L7.50989011,29.390625 M7.6967033,31.528125 L11.956044,31.528125 L12.2549451,34.93125 L17,36.20625 L17,40.65 L8.29450549,38.2125" id="Shape" fill="#EBEBEB"></path>
                <path d="M27.610989,16.528125 L16.9813187,16.528125 L16.9813187,20.784375 L27.2186813,20.784375 M26.8357143,25.14375 L16.9813187,25.14375 L16.9813187,29.4 L22.2120879,29.4 L21.717033,34.93125 L16.9813187,36.20625 L16.9813187,40.63125 L25.6681319,38.2125" id="Shape" fill="#FFFFFF"></path>
            </g>
        </g>
    </g>
</svg>
