<?xml version="1.0" encoding="UTF-8"?>
<svg viewBox="0 0 16 14" version="1.1" xmlns="http://www.w3.org/2000/svg" xmlns:xlink="http://www.w3.org/1999/xlink">
    <g id="Page-1" stroke="none" stroke-width="1" fill="none" fill-rule="evenodd">
        <g id="shockolada" transform="translate(-1384.000000, -29.000000)">

            <g id="icon-telegram" transform="translate(1384.000000, 28.000000)">
                <g id="telegram">
                    <rect id="Rectangle" fill="#FFFFFF" opacity="0" x="0" y="0" width="16" height="16"></rect>
                    <path d="M0.282392393,7.71282853 L3.96862615,9.09563953 L5.39576179,13.7071534 C5.48855761,14.0030107 5.84694145,14.1123492 6.08373077,13.916183 L8.13803813,12.2342989 C8.35242846,12.0574277 8.6596146,12.0477802 8.88680436,12.211788 L12.5922373,14.9163091 C12.8482257,15.1028278 13.2098094,14.9613308 13.2738065,14.6526103 L15.990484,1.52555327 C16.0608808,1.18789011 15.7280958,0.904896235 15.4081103,1.03031398 L0.279192537,6.89600529 C-0.095190579,7.04071807 -0.0919907233,7.57454743 0.282392393,7.71282853 Z M5.35337814,8.37985335 L12.8013195,4.01988956 C12.9336098,3.94130333 13.0725146,4.11419303 12.9567606,4.2147834 L6.81187821,9.64351985 C6.59690655,9.83527024 6.45800178,10.0898896 6.4183147,10.3665131 L6.20995755,11.8407907 C6.1834995,12.038828 5.89246093,12.0576887 5.83293032,11.8659383 L5.02926702,9.1782894 C4.93666384,8.87337484 5.06895409,8.54645614 5.35337814,8.37985335 Z" id="Shape" fill="#50B1DF" fill-rule="nonzero"></path>
                </g>
            </g>
        </g>
    </g>
</svg>
