<?xml version="1.0" encoding="UTF-8"?>
<svg width="16px" height="13px" viewBox="0 0 16 13" version="1.1" xmlns="http://www.w3.org/2000/svg" xmlns:xlink="http://www.w3.org/1999/xlink">
    <g id="Page-1" stroke="none" stroke-width="1" fill="none" fill-rule="evenodd">
        <g id="shockolada" transform="translate(-1513.000000, -29.000000)">
            <rect fill="#FFFFFF" x="0" y="0" width="1920" height="4125"></rect>
            <g id="icon/twitter" transform="translate(1513.000000, 28.000000)">
                <rect id="Rectangle-9" fill="#FAFAFA" opacity="0" x="0" y="0" width="16" height="16"></rect>
                <path d="M14.36218,4.23829181 C14.5693646,8.85532459 11.1266401,14.003096 5.03179517,14.003096 C3.17814143,14.003096 1.45265124,13.4593838 0,12.5280358 C1.74121578,12.7332547 3.47967959,12.2504791 4.85959998,11.1685587 C3.42346061,11.1422183 2.21101774,10.193179 1.79350337,8.8891346 C2.30773011,8.98741953 2.81370092,8.95872033 3.27564008,8.83330876 C1.696791,8.51565187 0.607400855,7.09366554 0.642783429,5.57300113 C1.08545874,5.81871345 1.59182269,5.96653398 2.13003096,5.98304585 C0.667944371,5.00648681 0.253968254,3.07617082 1.11415794,1.60071748 C2.73271414,3.58685931 5.15130965,4.89365571 7.87969925,5.03086147 C7.40124822,2.97709961 8.95886776,1 11.0774977,1 C12.0218193,1 12.8749324,1.39825053 13.4732911,2.03631628 C14.2210428,1.88928203 14.9235835,1.61604993 15.5577178,1.23981522 C15.3127918,2.00643766 14.7922748,2.65000737 14.1145019,3.05572755 C14.7785149,2.97670647 15.4110767,2.80018674 16,2.53914197 C15.5600767,3.19765099 15.0033908,3.77556637 14.36218,4.23829181" id="Twitter" fill="#4DC8F1"></path>
            </g>
        </g>
    </g>
</svg>
