<?xml version="1.0" encoding="UTF-8"?>
<svg width="16px" height="10px" viewBox="0 0 16 10" version="1.1" xmlns="http://www.w3.org/2000/svg" xmlns:xlink="http://www.w3.org/1999/xlink">

    <g id="Page-1" stroke="none" stroke-width="1" fill="none" fill-rule="evenodd">
        <g id="shockolada" transform="translate(-1448.000000, -32.000000)">

            <g id="icon-vk" transform="translate(1448.000000, 28.000000)">
                <rect id="Rectangle-9" fill="#FFFFFF" opacity="0" x="0" y="0" width="16" height="16"></rect>
                <path d="M9.36387662,12.2500002 C9.40554402,11.608843 9.69461161,10.6109088 10.4170202,11.1551892 C10.8534862,11.4848825 11.1998465,11.9624951 11.5920409,12.3817733 C11.9748601,12.7901139 12.431639,13.146891 13.2826957,13.1250156 C13.7873921,13.1119945 15.2368968,13.159912 15.6145076,13.0224096 C16.7556735,12.6083398 14.7337629,10.716119 14.2400042,10.292674 C14.032188,10.1145459 13.7993714,9.86089557 13.6212433,9.67235058 C13.4009269,9.43953398 13.2951959,9.20359232 13.470199,8.83848172 L14.2353166,7.76242109 C14.4618831,7.5150209 15.2999187,6.31656228 15.5025265,5.9884315 C15.7941983,5.5155065 16.3926463,4.58580262 15.6212785,4.43684166 C15.1874167,4.35298602 13.7790586,4.43111239 13.2431116,4.43475829 C12.1873639,4.44152925 12.401951,4.32486052 11.8811085,5.52748588 C11.5342274,6.32749998 10.4633752,8.21294987 9.89565682,8.42805782 C8.84303411,8.82702319 9.66648612,5.00924758 9.2227283,4.34881928 C8.95345272,3.94829139 7.70551407,3.99829227 7.12164961,4.00610491 C6.44351266,4.01443839 5.50599614,4.05037652 5.30807599,4.60976138 C5.36849372,4.66132478 5.30234672,4.62642834 5.41953629,4.67434585 C5.50391277,4.70872145 5.63568593,4.71653409 5.77891762,4.79309794 C5.90600319,4.86028662 6.02163023,4.97851787 6.08777723,5.08476975 C6.40757453,5.59623709 6.36903218,7.75096256 6.10444419,8.2733676 C5.60912296,9.24942646 4.16222246,6.50719064 3.91430143,6.01864037 C3.56012852,5.32123225 3.42106357,4.6430953 3.02001484,4.46965474 C2.72938472,4.34465254 1.08195986,4.41444543 0.638722879,4.42173723 C0.232986563,4.42798734 -0.117019604,4.49205097 0.0371497794,4.97278861 C0.114755314,5.21498037 0.299133562,5.55613222 0.41059386,5.80040736 C1.09758513,7.30824642 2.17156239,9.15932071 3.11793323,10.4135095 C4.18618122,11.8286386 5.76537571,13.0823065 7.76176506,13.0984526 C9.19564449,13.1099112 9.30397973,13.1734539 9.36387662,12.2500002" id="VK" fill="#3E6FA1"></path>
            </g>
        </g>
    </g>
</svg>
