<?xml version="1.0" encoding="UTF-8"?>
<svg width="16px" height="16px" viewBox="0 0 16 16" version="1.1" xmlns="http://www.w3.org/2000/svg" xmlns:xlink="http://www.w3.org/1999/xlink">
    
    <g id="Page-1" stroke="none" stroke-width="1" fill="none" fill-rule="evenodd">
        <g id="shockolada" transform="translate(-1352.000000, -28.000000)">
            
            <g id="icon-Whatsapp" transform="translate(1352.000000, 28.000000)">
                <rect id="Rectangle-9" fill="#FFFFFF" opacity="0" x="0" y="0" width="16" height="16"></rect>
                <path d="M7.99767783,-3.55271368e-15 L7.99767783,0.000132732718 L8.00232217,0.000132732718 C12.4125828,0.000132732718 16,3.58856176 16,8.00006637 C16,12.4114382 12.4125828,16 8.00232217,16 C6.37547791,16 4.86620168,15.5156583 3.60148287,14.6785131 L0.526534911,15.6612661 L1.52334193,12.6889824 C0.564220374,11.3720083 0,9.74948359 0,7.99993363 C0,3.58842903 3.58741717,-3.55271368e-15 7.99767783,-3.55271368e-15 Z M5.7642834,4.06361215 C5.60916261,3.69209328 5.49159458,3.67802361 5.25659122,3.66846685 C5.17657596,3.66382121 5.08740473,3.65917556 4.98854674,3.65917556 C4.68281679,3.65917556 4.36315384,3.74850468 4.17034758,3.94601097 C3.93534422,4.18585899 3.35228111,4.74546013 3.35228111,5.8930672 C3.35228111,7.04067428 4.18919031,8.15058527 4.30198131,8.30588255 C4.41954933,8.46091436 5.93360259,10.8501033 8.28443235,11.8238305 C10.1227929,12.5857163 10.6683032,12.5151025 11.0866915,12.4257734 C11.697886,12.2941025 12.464334,11.8424131 12.6571403,11.2970143 C12.8499465,10.7513501 12.8499465,10.2857238 12.7934183,10.1869706 C12.7370228,10.0882175 12.5817693,10.0319388 12.346766,9.91420489 C12.1117626,9.7966037 10.9691235,9.23222419 10.7528301,9.15696473 C10.5411812,9.07705964 10.3390862,9.10533171 10.1793211,9.33111006 C9.95360641,9.64621753 9.73266875,9.96610338 9.5539282,10.1588313 C9.4128731,10.3093502 9.18238138,10.3281982 8.98970782,10.2481604 C8.7310847,10.140116 8.0070992,9.88593282 7.11366181,9.09112931 C6.42245204,8.47511676 5.95231263,7.70858532 5.81603457,7.47816132 C5.67962381,7.24309168 5.80196887,7.10650971 5.90998283,6.97961723 C6.02755086,6.83374398 6.14034186,6.73034519 6.25790988,6.59389595 C6.37547791,6.45757945 6.44129477,6.38696565 6.516533,6.22702272 C6.59654826,6.07185818 6.54002007,5.91191525 6.48362457,5.79431406 C6.42722907,5.67671287 5.95708966,4.5291058 5.7642834,4.06361215 Z" id="Whatsapp" fill="#67C15E"></path>
            </g>
        </g>
    </g>
</svg>