<?xml version="1.0" encoding="utf-8"?>

<svg version="1.1" id="Layer_1" xmlns="http://www.w3.org/2000/svg" xmlns:xlink="http://www.w3.org/1999/xlink" x="0px" y="0px"
	 viewBox="0 0 262 16" style="enable-background:new 0 0 262 16;" xml:space="preserve" fill-opacity="0.5" fill="#ffffff">

<g id="Logo-white">
	<path d="M3.3,10.3C1.7,9.7,0.2,9,0.2,7.3c0-2.3,2.2-3,4.5-3.1c1.1,0,2.2,0.1,3.2,0.3v2.1
		c-0.3-0.1-1.2-0.2-2-0.3c-1.4-0.1-3,0-3,1c0,0.7,1.2,1,2.5,1.5C7,9.4,9,10.3,9,12.4c0,2.6-2.9,3.2-5.1,3.2S0.1,15.1,0,15.1v-2.2
		c0,0,1.3,0.4,2.9,0.5c1.5,0.1,3.2,0,3.4-0.9C6.6,11.3,4.9,10.9,3.3,10.3"/>
	<path d="M21.3,15.3h-2.7V0h2.7v4.5c3.2-0.5,8.1-1.2,8.1,5.2v5.6h-2.7V9.7c0-3.2-2-3.4-3.3-3.4
		c-0.7,0-1.5,0.1-2.2,0.2v8.8H21.3z"/>
	<path d="M48.1,9.9c0-2.5-1.4-3.6-3.2-3.6c-1.9,0-3.2,1.1-3.2,3.6s1.4,3.6,3.2,3.6
		C46.7,13.5,48.1,12.4,48.1,9.9 M50.8,9.9c0,3.5-2.1,5.7-5.9,5.7c-3.8,0-5.9-2.1-5.9-5.7c0-3.5,2.1-5.7,5.9-5.7
		C48.6,4.2,50.8,6.3,50.8,9.9"/>
	<path d="M66.8,15.6c-3.4,0.1-6.9-0.7-6.9-5.6c0-5,3.6-5.8,6.9-5.7c0.8,0,1.7,0.1,2.4,0.2v2.1
		c-0.7-0.1-1.7-0.2-2.6-0.2c-1.8,0-4,0.3-4,3.6s2.2,3.6,4,3.6c1,0,2-0.1,2.7-0.2v2.1C68.6,15.4,67.7,15.5,66.8,15.6"/>
	<polygon points="83,11.1 81.9,12.1 81.9,15.3 79.2,15.3 79.2,0 81.9,0 81.9,8.6 86.1,4.5 
		89.5,4.5 84.7,9.3 90.4,15.3 87.1,15.3 	"/>
	<path d="M107.3,9.9c0-2.5-1.4-3.6-3.2-3.6c-1.9,0-3.2,1.1-3.2,3.6s1.4,3.6,3.2,3.6
		S107.3,12.4,107.3,9.9 M109.9,9.9c0,3.5-2.1,5.7-5.9,5.7s-5.9-2.1-5.9-5.7c0-3.5,2.1-5.7,5.9-5.7C107.7,4.2,109.9,6.3,109.9,9.9"/>
	<polygon points="119.6,15.3 122.3,15.3 122.3,0 119.6,0 	"/>
	<path d="M139.1,10.4c-0.4,0-1.1-0.2-1.9-0.2c-1.5,0-2.6,0.4-2.6,1.7s1.1,1.7,2.5,1.7
		c0.8,0,1.4-0.1,2-0.2V10.4z M141.8,8.5v6.6c-1.9,0.4-3.8,0.6-5.5,0.5c-2.7-0.1-4.5-1.2-4.5-3.7s2-3.3,4.2-3.4c1.2,0,2.3,0.1,3,0.2
		V8.4c0-1.6-0.8-2.1-2.3-2.1c-1,0-2.6,0.1-3.3,0.2v-2c1.5-0.2,3.3-0.3,4.7-0.2C140.3,4.4,141.8,5,141.8,8.5z"/>
	<path d="M154.1,9.9c0,3.3,1.7,3.6,3.7,3.6c0.6,0,1.3-0.1,1.8-0.2V6.5c-0.7-0.1-1.5-0.2-2.1-0.2
		C155.9,6.3,154.1,6.6,154.1,9.9 M157.3,15.5c-3.2,0-5.9-1.1-5.9-5.6c0-4.1,1.8-5.5,4.4-5.7c1.2-0.1,2.5,0.1,3.7,0.4V0h2.7v15
		C161,15.3,159,15.5,157.3,15.5"/>
	<path d="M179.2,10.4c-0.4,0-1.1-0.2-1.9-0.2c-1.5,0-2.6,0.4-2.6,1.7s1.1,1.7,2.5,1.7
		c0.8,0,1.4-0.1,2-0.2V10.4z M181.9,8.5v6.6c-1.9,0.4-3.8,0.6-5.5,0.5c-2.7-0.1-4.5-1.2-4.5-3.7s2-3.3,4.2-3.4c1.2,0,2.3,0.1,3,0.2
		V8.4c0-1.6-0.8-2.1-2.3-2.1c-1,0-2.6,0.1-3.3,0.2v-2c1.5-0.2,3.3-0.3,4.7-0.2C180.4,4.4,181.9,5,181.9,8.5z"/>
	<path d="M194.9,15.7c-1.3,0-2.4-0.8-2.4-2.4s1.1-2.3,2.4-2.3c1.3,0,2.4,0.8,2.4,2.3
		S196.2,15.7,194.9,15.7"/>
	<path d="M217.1,6.5c-1.1-0.4-2-0.6-3.1-0.6c-2,0-2.9,0.6-2.9,1.5c0,1.1,1.1,1.4,3,1.7
		c2.3,0.3,4.1,1.1,4.1,3.3c0,2.1-1.9,3.1-4.9,3.1c-1.5,0-2.5-0.1-3.6-0.6l0.4-1.3c1.1,0.5,2,0.6,3.2,0.6c2.4,0,3.5-0.6,3.5-1.8
		s-0.9-1.6-3.1-1.9c-2.5-0.3-4-1.2-4-3c0-1.6,1.4-2.9,4.4-2.9c1.4,0,2.4,0.1,3.6,0.6L217.1,6.5z"/>
	<path d="M226.4,15.3h1.5V4.9h-1.5V15.3z M228.4,1.6c0,0.6-0.5,1.2-1.2,1.2S226,2.2,226,1.6
		s0.5-1.2,1.2-1.2C227.9,0.4,228.4,1,228.4,1.6z"/>
	<path d="M236,5.4l1.3-0.8l1.4-2.3l0.5,0.1v2.5h4.3l-0.1,1.3l-4.2-0.1v5.7
		c0,1.7,0.8,2.4,2.2,2.4c0.9,0,1.6-0.2,2.3-0.6l0.6,1.2c-0.9,0.5-1.8,0.8-3,0.8c-2.4,0-3.5-1.3-3.5-3.7V6.2L236,6V5.4z"/>
	<path d="M260.1,9.2c0-2.3-1.1-3.2-3.5-3.2c-1.9,0-3.7,1.1-3.9,3.2H260.1z M252.6,10.4
		c0.1,2.6,2.1,3.8,4.4,3.8c1.4,0,2.6-0.2,3.6-0.8l0.4,1.3c-1.3,0.6-2.4,0.8-4.1,0.8c-3.7,0-5.8-2.1-5.8-5.4s2.4-5.4,5.7-5.4
		c3.3,0,4.8,1.8,4.8,4.3c0,0.5,0,1-0.2,1.5h-8.8V10.4z"/>
</g>
</svg>
