<svg xmlns="http://www.w3.org/2000/svg" xmlns:xlink="http://www.w3.org/1999/xlink"><defs>
        <polygon id="path-1" points="0.170182241 0.174713192 23.5008261 0.174713192 23.5008261 24.7023022 0.170182241 24.7023022"/>
        <polygon id="path-3" points="0.0119754592 0.191329555 13.78271 0.191329555 13.78271 21.3765182 0.0119754592 21.3765182"/>
        <polygon id="path-5" points="0 0.180923077 22.2804162 0.180923077 22.2804162 23.7107174 0 23.7107174"/>
    </defs><symbol id="arrow-left" viewBox="0 0 16 11">
<g transform="translate(176.000000, 59.000000)">

		<g transform="translate(120.000000, 13.500000) scale(-1, 1) rotate(-90.000000) translate(-120.000000, -13.500000) translate(114.500000, 5.500000)">
		<path d="M72.1,288.5c0-0.3,0.2-0.5,0.5-0.5s0.5,0.2,0.5,0.5v15c0,0.3-0.2,0.5-0.5,0.5s-0.5-0.2-0.5-0.5V288.5z"/>
		<path d="M72.6,302.8l4.6-4.6c0.2-0.2,0.5-0.2,0.7,0s0.2,0.5,0,0.7l-5,5c-0.2,0.2-0.5,0.2-0.7,0l-5-5c-0.2-0.2-0.2-0.5,0-0.7
			s0.5-0.2,0.7,0L72.6,302.8z"/>
	</g>
</g>
</symbol><symbol id="arrow-right" viewBox="0 0 16 11">
  <style>
    .st0 {
      fill: #111111;
    }
  </style>
  <g transform="translate(176.000000, 59.000000)">
    <g transform="translate(120.000000, 13.500000) scale(-1, 1) rotate(-90.000000) translate(-120.000000, -13.500000) translate(114.500000, 5.500000)">
      <path class="st0" d="M73,303.5c0,0.3-0.2,0.5-0.5,0.5s-0.5-0.2-0.5-0.5v-15c0-0.3,0.2-0.5,0.5-0.5s0.5,0.2,0.5,0.5
			V303.5z"/>
      <path class="st0" d="M72.5,289.2l-4.6,4.6c-0.2,0.2-0.5,0.2-0.7,0c-0.2-0.2-0.2-0.5,0-0.7l5-5
			c0.2-0.2,0.5-0.2,0.7,0l5,5c0.2,0.2,0.2,0.5,0,0.7c-0.2,0.2-0.5,0.2-0.7,0L72.5,289.2z"/>
    </g>
  </g>
</symbol><symbol id="arrow" viewBox="0 0 16 16">
<style>
	.st0{fill:#111111;}
</style>
<g id="Stacked-Group-2" transform="translate(1511.000000, 486.000000)">

		<g id="tail-up" transform="translate(8.500000, 8.000000) rotate(-90.000000) translate(-8.500000, -8.000000) translate(1.000000, 0.000000)">
		<path id="Shape" class="st0" d="M493-1511c0-0.3,0.2-0.5,0.5-0.5s0.5,0.2,0.5,0.5v15c0,0.3-0.2,0.5-0.5,0.5s-0.5-0.2-0.5-0.5
			V-1511z"/>
		<path id="Shape_1_" class="st0" d="M493.5-1496.7l7.1-7.1c0.2-0.2,0.5-0.2,0.7,0c0.2,0.2,0.2,0.5,0,0.7l-7.5,7.5
			c-0.2,0.2-0.5,0.2-0.7,0l-7.5-7.5c-0.2-0.2-0.2-0.5,0-0.7c0.2-0.2,0.5-0.2,0.7,0L493.5-1496.7z"/>
	</g>
</g>
</symbol><symbol id="css" viewBox="0 0 34 48">
    <g id="Page-1" stroke="none" stroke-width="1" fill="none" fill-rule="evenodd">
        <g id="shockolada" transform="translate(-1100.000000, -1424.000000)">
            <rect fill="#FFFFFF" x="0" y="0" width="1920" height="4125"/>
            <g id="CSS3" transform="translate(1100.000000, 1424.000000)" fill-rule="nonzero">
                <g id="#000000ff" transform="translate(6.760234, 0.000000)" fill="#000000">
                    <path d="M0.0367836257,0.096 C2.12450292,0.07 4.21222222,0.088 6.29994152,0.087 C6.30491228,0.744 6.3148538,1.401 6.29099415,2.058 C4.84450292,2.048 3.39900585,2.058 1.95350877,2.067 C1.94356725,3.021 1.92467836,3.975 1.93362573,4.929 C3.38508772,4.938 4.83754386,4.952 6.28900585,4.946 C6.30590643,5.486 6.29994152,6.028 6.28403509,6.569 C4.2022807,6.555 2.12052632,6.561 0.0387719298,6.563 C0.0437426901,4.407 0.0477192982,2.252 0.0367836257,0.096 Z" id="Shape"/>
                    <path d="M7.0445614,0.089 C9.15812865,0.085 11.2716959,0.072 13.3862573,0.096 C13.3783041,0.717 13.384269,1.337 13.384269,1.958 C11.8463158,1.953 10.3073684,1.96 8.7694152,1.978 C8.77140351,2.222 8.77140351,2.466 8.7694152,2.71 C10.3053801,2.735 11.8403509,2.738 13.3753216,2.747 C13.3812865,4.02 13.3783041,5.292 13.3862573,6.564 C11.2716959,6.56 9.1571345,6.562 7.0425731,6.572 C7.03163743,6.058 7.03064327,5.545 7.04555556,5.031 C8.51093567,5.035 9.97730994,5.037 11.4426901,5.025 C11.4516374,4.694 11.455614,4.362 11.4546199,4.031 C9.9822807,4.031 8.50894737,4.036 7.03660819,4.026 C7.03660819,2.714 7.03660819,1.401 7.0445614,0.089 Z" id="Shape"/>
                    <path d="M14.0940936,0.1 C16.2036842,0.1 18.314269,0.1 20.4238596,0.1 C20.432807,0.724 20.4417544,1.348 20.4218713,1.971 C18.8769591,1.97 17.3320468,1.979 15.7871345,1.982 C15.7911111,2.237 15.797076,2.492 15.81,2.747 C17.3459649,2.74 18.8819298,2.759 20.4169006,2.775 C20.4308187,4.042 20.4407602,5.309 20.4228655,6.576 C18.3083041,6.57 16.1937427,6.57 14.0791813,6.58 C14.0662573,6.068 14.0622807,5.554 14.084152,5.042 C15.5465497,5.053 17.0099415,5.051 18.4733333,5.037 C18.4773099,4.705 18.484269,4.373 18.4812865,4.042 C17.012924,4.056 15.5435673,4.048 14.0742105,4.043 C14.0742105,2.729 14.084152,1.414 14.0940936,0.1 Z" id="Shape"/>
                </g>
                <g id="#0170baff" transform="translate(0.000000, 9.200000)" fill="#0170BA">
                    <path d="M0,0.046 C11.3253801,0.045 22.6497661,0.044 33.9751462,0.046 C33.3518129,7.131 32.7384211,14.216 32.0892398,21.299 C31.7035088,25.826 31.305848,30.353 30.8863158,34.877 C28.4695322,35.521 26.0766082,36.255 23.6608187,36.902 C21.4418713,37.557 19.2050292,38.15 16.9850877,38.8 L16.9194737,38.8 C14.8069006,38.168 12.6734503,37.612 10.5608772,36.98 C8.06754386,36.304 5.59608187,35.55 3.10175439,34.877 C2.77666667,31.486 2.48339181,28.093 2.19409357,24.7 C1.64830409,18.431 1.05479532,12.166 0.529883041,5.896 C0.347953216,4.009 0.217719298,2.116 0,0.233 L0,0.046 Z M17.0407602,2.841 C17.0169006,4.202 17.058655,5.564 17.0169006,6.924 C13.1317544,6.91 9.24561404,6.921 5.36046784,6.925 C5.42707602,8.246 5.60304094,9.558 5.78397661,10.868 C9.39871345,11.003 13.0184211,10.863 16.6331579,10.972 C13.4707602,12.399 10.2695906,13.743 7.09327485,15.14 C6.82087719,15.262 6.52959064,15.354 6.28602339,15.532 C6.3128655,16.983 6.54549708,18.426 6.64789474,19.874 C8.5745614,19.867 10.5002339,19.836 12.4269006,19.833 C13.9708187,19.825 15.515731,19.856 17.0596491,19.822 C16.9860819,22.208 17.0825146,24.597 17.0099415,26.983 C15.9710526,26.828 14.9450877,26.595 13.9101754,26.41 C13.0939766,26.231 12.2578947,26.138 11.4536257,25.903 C11.3392982,24.758 11.2597661,23.609 11.1583626,22.463 C10.925731,22.391 10.6791813,22.398 10.4385965,22.394 C9.27146199,22.401 8.10333333,22.39 6.93520468,22.408 C7.04953216,24.611 7.24637427,26.811 7.58140351,28.993 C8.73263158,29.295 9.88584795,29.591 11.0350877,29.906 C12.795731,30.388 14.5782456,30.789 16.3418713,31.263 C16.5516374,31.308 16.7633918,31.386 16.9811111,31.368 C17.0984211,32.817 17.0079532,34.275 17.0298246,35.728 C17.4364327,35.662 17.8360819,35.561 18.2287719,35.439 C21.5671345,34.527 24.9015205,33.598 28.2378947,32.677 C28.4039181,31.357 28.481462,30.028 28.6126901,28.705 C28.9596491,24.683 29.3095906,20.661 29.6734503,16.64 C30.0999415,12.04 30.4687719,7.435 30.8982456,2.835 C26.2784211,2.839 21.6595906,2.826 17.0407602,2.841 Z" id="Shape"/>
                </g>
                <g id="#29a9dfff" transform="translate(16.900585, 12.000000)" fill="#29A9DF">
                    <path d="M0.140175439,0.041 C4.75900585,0.026 9.37783626,0.039 13.9976608,0.035 C13.5681871,4.635 13.1993567,9.24 12.7728655,13.84 C12.4090058,17.861 12.0590643,21.883 11.7121053,25.905 C11.5808772,27.228 11.5033333,28.557 11.3373099,29.877 C8.00093567,30.798 4.66654971,31.727 1.32818713,32.639 C0.935497076,32.761 0.535847953,32.862 0.129239766,32.928 C0.107368421,31.475 0.197836257,30.017 0.0805263158,28.568 C0.110350877,28.562 0.170994152,28.55 0.200818713,28.544 C3.30555556,27.76 6.3894152,26.897 9.48719298,26.085 C9.87888889,21.665 10.3133333,17.247 10.5887135,12.818 C7.95421053,12.832 5.31871345,12.824 2.68421053,12.835 C2.30046784,12.837 1.91672515,12.835 1.53497076,12.807 C2.95263158,12.073 4.44385965,11.491 5.89929825,10.836 C7.29608187,10.199 8.70976608,9.602 10.1115205,8.977 C10.3819298,8.852 10.6702339,8.748 10.9078363,8.562 C11.0012865,8.217 10.9963158,7.856 11.0330994,7.503 C11.1136257,6.383 11.2567836,5.269 11.3104678,4.148 C7.5794152,4.118 3.84836257,4.144 0.116315789,4.124 C0.158070175,2.764 0.116315789,1.402 0.140175439,0.041 Z" id="Shape"/>
                    <path d="M0.159064327,17.022 C1.96046784,16.991 3.7628655,17.04 5.56526316,17.028 C5.4648538,18.881 5.31175439,20.731 5.21631579,22.584 C4.11181287,22.947 2.99040936,23.254 1.87695906,23.59 C1.28345029,23.772 0.674035088,23.916 0.109356725,24.183 C0.181929825,21.797 0.085497076,19.408 0.159064327,17.022 Z" id="Shape"/>
                </g>
                <g id="#cfcfcfff" transform="translate(5.269006, 16.100000)" fill="#CFCFCF">
                    <path d="M0.0914619883,0.025 C3.97660819,0.021 7.86274854,0.01 11.7478947,0.024 C11.7985965,4.324 11.7349708,8.624 11.7906433,12.922 C10.2467251,12.956 8.70181287,12.925 7.15789474,12.933 C5.23122807,12.936 3.30555556,12.967 1.37888889,12.974 C1.27649123,11.526 1.04385965,10.083 1.01701754,8.632 C1.2605848,8.454 1.55187135,8.362 1.82426901,8.24 C5.0005848,6.843 8.20175439,5.499 11.364152,4.072 C7.7494152,3.963 4.1297076,4.103 0.51497076,3.968 C0.334035088,2.658 0.158070175,1.346 0.0914619883,0.025 Z" id="Shape"/>
                    <path d="M1.66619883,15.508 C2.83432749,15.49 4.00245614,15.501 5.16959064,15.494 C5.41017544,15.498 5.65672515,15.491 5.88935673,15.563 C5.99076023,16.709 6.0702924,17.858 6.18461988,19.003 C6.98888889,19.238 7.82497076,19.331 8.64116959,19.51 C9.67608187,19.695 10.7020468,19.928 11.7409357,20.083 C11.8403509,21.535 11.6663743,22.997 11.8323977,24.444 C11.8025731,24.45 11.7419298,24.462 11.7121053,24.468 C11.494386,24.486 11.2826316,24.408 11.0728655,24.363 C9.30923977,23.889 7.52672515,23.488 5.76608187,23.006 C4.61684211,22.691 3.46362573,22.395 2.31239766,22.093 C1.97736842,19.911 1.78052632,17.711 1.66619883,15.508 Z" id="Shape"/>
                </g>
                <g id="#ffffffff" transform="translate(17.000000, 16.100000)" fill="#FFFFFF">
                    <path d="M0.0169005848,0.024 C3.74894737,0.044 7.48,0.018 11.2110526,0.048 C11.1573684,1.169 11.0142105,2.283 10.9336842,3.403 C10.8969006,3.756 10.9018713,4.117 10.8084211,4.462 C10.5708187,4.648 10.2825146,4.752 10.0121053,4.877 C8.61035088,5.502 7.19666667,6.099 5.79988304,6.736 C4.34444444,7.391 2.85321637,7.973 1.43555556,8.707 C1.81730994,8.735 2.20105263,8.737 2.58479532,8.735 C5.21929825,8.724 7.85479532,8.732 10.4892982,8.718 C10.2139181,13.147 9.77947368,17.565 9.38777778,21.985 C6.29,22.797 3.20614035,23.66 0.101403509,24.444 C-0.064619883,22.997 0.109356725,21.535 0.00994152047,20.083 C0.574619883,19.816 1.18403509,19.672 1.77754386,19.49 C2.89099415,19.154 4.01239766,18.847 5.11690058,18.484 C5.21233918,16.631 5.3654386,14.781 5.46584795,12.928 C3.66345029,12.94 1.86105263,12.891 0.0596491228,12.922 C0.00397660819,8.624 0.0676023392,4.324 0.0169005848,0.024 Z" id="Shape"/>
                </g>
            </g>
        </g>
    </g>
</symbol><symbol id="fb" viewBox="0 0 9 16">
    <g id="Page-1" stroke="none" stroke-width="1" fill="none" fill-rule="evenodd">
        <g id="shockolada_HOVER" transform="translate(-1483.000000, -28.000000)">
            <g id="icon-fb" transform="translate(1480.000000, 28.000000)">
                <g id="Facebook-Copy">
                    <rect id="Rectangle-2" fill="#F7F7F7" opacity="0" x="0" y="0" width="16" height="16"/>
                    <path d="M12,0.113170732 L12,2.63804878 L10.5014634,2.64195122 C9.32682927,2.64195122 9.1004878,3.2 9.1004878,4.01560976 L9.1004878,5.82243902 L11.8985366,5.82243902 L11.5356098,8.64780488 L9.1004878,8.64780488 L9.1004878,16 L6.18185366,16 L6.18185366,8.64780488 L3.73853659,8.64780488 L3.73853659,5.82243902 L6.18185366,5.82243902 L6.18185366,3.73853659 C6.18185366,1.31902439 7.65658537,0 9.81853659,0 C10.8491707,0 11.7385366,0.0780487805 12,0.113170732 Z" id="Facebook" fill="#4460A0"/>
                </g>
            </g>
        </g>
    </g>
</symbol><symbol id="html" viewBox="0 0 34 48">
    <g id="Page-1" stroke="none" stroke-width="1" fill="none" fill-rule="evenodd">
        <g id="shockolada" transform="translate(-984.000000, -1424.000000)">
            <g id="HTML5_logo_and_wordmark" transform="translate(984.000000, 1424.000000)" fill-rule="nonzero">
                <path d="M3.21318681,0 L5.36153846,0 L5.36153846,2.1375 L7.34175824,2.1375 L7.34175824,0 L9.49010989,0 L9.49010989,6.46875 L7.34175824,6.46875 L7.34175824,4.3125 L5.38021978,4.3125 L5.38021978,6.46875 L3.21318681,6.46875 M12.3296703,2.15625 L10.4335165,2.15625 L10.4335165,0 L16.3835165,0 L16.3835165,2.15625 L14.478022,2.15625 L14.478022,6.46875 L12.3296703,6.46875 M17.3269231,0 L19.578022,0 L20.9604396,2.278125 L22.3428571,0 L24.593956,0 L24.593956,6.46875 L22.4456044,6.46875 L22.4456044,3.2625 L20.9417582,5.5875 L19.4379121,3.2625 L19.4379121,6.46875 L17.3269231,6.46875 M25.6587912,0 L27.8071429,0 L27.8071429,4.33125 L30.8521978,4.33125 L30.8521978,6.46875 L25.6587912,6.46875" id="Shape" fill="#000000"/>
                <polyline id="Shape" fill="#E44D26" points="3.13846154 44.15625 0.056043956 9.43125 33.943956 9.43125 30.8615385 44.1375 16.971978 48"/>
                <polyline id="Shape" fill="#F16529" points="17 45.046875 17 12.28125 30.8521978 12.28125 28.2087912 41.90625"/>
                <path d="M6.35164835,16.528125 L17,16.528125 L17,20.784375 L11.0032967,20.784375 L11.3956044,25.14375 L17,25.14375 L17,29.390625 L7.50989011,29.390625 M7.6967033,31.528125 L11.956044,31.528125 L12.2549451,34.93125 L17,36.20625 L17,40.65 L8.29450549,38.2125" id="Shape" fill="#EBEBEB"/>
                <path d="M27.610989,16.528125 L16.9813187,16.528125 L16.9813187,20.784375 L27.2186813,20.784375 M26.8357143,25.14375 L16.9813187,25.14375 L16.9813187,29.4 L22.2120879,29.4 L21.717033,34.93125 L16.9813187,36.20625 L16.9813187,40.63125 L25.6681319,38.2125" id="Shape" fill="#FFFFFF"/>
            </g>
        </g>
    </g>
</symbol><symbol id="insta" viewBox="0 0 16 16">
<g id="Page-1">
	<g id="shockolada" transform="translate(-1416.000000, -28.000000)">
		<g id="icon-instagram" transform="translate(1416.000000, 28.000000)">
			<g id="Instagram_new">
				
					<linearGradient id="Shape_2_" gradientUnits="userSpaceOnUse" x1="-412.8892" y1="430.3921" x2="-412.8892" y2="431.3814" gradientTransform="matrix(15.972 0 0 -15.972 6602.6519 6890.1479)">
					<stop offset="0" style="stop-color:#E09B3D"/>
					<stop offset="0.3" style="stop-color:#C74C4D"/>
					<stop offset="0.6" style="stop-color:#C21975"/>
					<stop offset="1" style="stop-color:#7024C4"/>
				</linearGradient>
				<path id="Shape" style="&amp;st0;" d="M11.2,0H4.8C2.1,0,0,2.1,0,4.8v6.5C0,13.8,2.1,16,4.8,16h6.5c2.6,0,4.8-2.1,4.8-4.8V4.8
					C16,2.1,13.8,0,11.2,0z M11.2,14.4H4.8c-1.7,0-3.2-1.4-3.2-3.2V4.8C1.6,3,3,1.6,4.8,1.6h6.5c1.7,0,3.2,1.4,3.2,3.2v6.5
					C14.4,13,13,14.4,11.2,14.4z"/>
				
					<linearGradient id="Shape_3_" gradientUnits="userSpaceOnUse" x1="-387.1222" y1="404.161" x2="-387.1222" y2="406.0736" gradientTransform="matrix(8.2619 0 0 -8.2618 3206.3328 3355.033)">
					<stop offset="0" style="stop-color:#E09B3D"/>
					<stop offset="0.3" style="stop-color:#C74C4D"/>
					<stop offset="0.6" style="stop-color:#C21975"/>
					<stop offset="1" style="stop-color:#7024C4"/>
				</linearGradient>
				<path id="Shape_1_" style="&amp;st1;" d="M8,3.9C5.7,3.9,3.9,5.7,3.9,8s1.9,4.1,4.1,4.1s4.1-1.9,4.1-4.1S10.3,3.9,8,3.9z M8,10.5
					c-1.4,0-2.5-1.1-2.5-2.5S6.6,5.5,8,5.5c1.4,0,2.5,1.1,2.5,2.5C10.5,9.4,9.4,10.5,8,10.5z"/>
				
					<linearGradient id="Oval_1_" gradientUnits="userSpaceOnUse" x1="-220" y1="231.9186" x2="-220" y2="239.9003" gradientTransform="matrix(2 0 0 -2 452.1249 479.8861)">
					<stop offset="0" style="stop-color:#E09B3D"/>
					<stop offset="0.3" style="stop-color:#C74C4D"/>
					<stop offset="0.6" style="stop-color:#C21975"/>
					<stop offset="1" style="stop-color:#7024C4"/>
				</linearGradient>
				<circle id="Oval" style="&amp;st2;" cx="12.1" cy="3.9" r="1"/>
			</g>
		</g>
	</g>
</g>
</symbol><symbol id="jq" viewBox="0 0 49 48">
    
    <g id="Page-1" stroke="none" stroke-width="1" fill="none" fill-rule="evenodd">
        <g id="shockolada" transform="translate(-1158.000000, -1424.000000)">
            <rect fill="#FFFFFF" x="0" y="0" width="1920" height="4125"/>
            <g id="Group-22" transform="translate(1158.000000, 1424.000000)">
                <g id="Group-3" transform="translate(25.371542, 15.365636)">
                    <mask id="mask-2" fill="white">
                        <use xlink:href="#path-1"/>
                    </mask>
                    <g id="Clip-2"/>
                    <path d="M12.1607542,19.6273749 C12.8696079,19.6273749 13.578268,19.6287352 14.2871217,19.6269862 C15.1625368,19.6250429 15.1631178,19.6242656 15.4309715,18.8257555 C15.461185,18.7357798 15.4747423,18.6403628 15.5012759,18.5490267 C16.0102561,16.7930429 16.547513,15.0446381 17.0214379,13.2789377 C17.4006553,11.8665328 17.7103431,10.4541279 17.6754814,8.9525247 C17.6359715,7.24706721 16.3735921,5.86420081 15.0333549,5.45454899 C13.9950585,5.13759352 12.9370071,5.18190121 11.8996791,5.33833846 C11.2293668,5.43919676 10.5565368,5.64110769 9.95827194,6.0427919 C8.60931937,6.94818462 7.70659605,8.17539109 7.16643399,9.6962332 C6.67740237,11.073464 6.35415731,12.4786785 6.13917708,13.9318931 C5.98985296,14.9396988 6.04543794,15.8981441 6.22361976,16.8600874 C6.33788854,17.4780632 6.62433518,18.0453182 7.08295968,18.5319255 C7.84488063,19.3405409 8.82313755,19.5418688 9.84187273,19.6159093 C10.6109597,19.6718769 11.3874063,19.6269862 12.1607542,19.6273749 Z M14.5960348,24.6951644 C12.6290625,24.6951644 10.6617028,24.7153749 8.69492411,24.6877798 C7.48987273,24.6706785 6.2972166,24.506468 5.14833123,24.1129457 C2.48025217,23.1990024 0.886299605,21.3569296 0.374414229,18.5670996 C0.0761533597,16.9417069 0.134256126,15.3273911 0.35833913,13.6957798 C0.693398419,11.2541927 1.39411779,8.93522915 2.539517,6.76201457 C3.81003083,4.35190931 5.59088063,2.44007126 8.10014545,1.28476761 C9.52269486,0.629868826 11.0091573,0.230710931 12.5802561,0.197674494 C13.353604,0.181544939 14.1304379,0.152589474 14.900687,0.203310121 C17.4252522,0.369852632 19.6693747,1.18371498 21.4142008,3.12334251 C22.3531415,4.1670996 22.9194498,5.40188502 23.2376593,6.7433587 C23.7063549,8.71835466 23.5076435,10.6826623 22.9684498,12.6174316 C22.3403589,14.8712939 21.544351,17.0678283 20.6668055,19.235213 C20.5285209,19.5768486 20.6327186,19.7908081 20.9900506,19.8034397 C21.6020664,19.8255935 22.2156316,19.7979984 22.8278411,19.8125733 C23.1909834,19.8211239 23.3135802,19.9719255 23.2140308,20.2937393 C22.8400427,21.5022899 22.5078885,22.7205571 22.2539794,23.9613668 C22.1643075,24.3995854 21.8269241,24.6415287 21.3684933,24.6772858 C21.1761731,24.6922494 20.9815289,24.6798121 20.7880466,24.6798121 L14.5960348,24.6798121 L14.5960348,24.6951644 Z" id="Fill-1" fill="#121B28" mask="url(#mask-2)"/>
                </g>
                <g id="Group-6" transform="translate(9.877470, 26.442559)">
                    <mask id="mask-4" fill="white">
                        <use xlink:href="#path-3"/>
                    </mask>
                    <g id="Clip-5"/>
                    <path d="M3.07973715,21.3757992 C2.07843281,21.3756049 1.21773715,21.396204 0.362270751,21.2352972 C0.0655592885,21.1795239 -0.0322470356,21.0318316 0.029729249,20.7778397 C0.336705534,19.5189571 0.655108696,18.2631838 0.974673913,17.0076049 C1.09068577,16.551702 1.31147628,16.3733053 1.78172134,16.3581474 C2.00464229,16.3509571 2.2560336,16.3142283 2.44661067,16.3989571 C3.05049209,16.6667466 3.51085968,16.3682526 3.91448024,16.0238964 C4.96033004,15.1313296 5.35368577,13.8930462 5.62037747,12.5945198 C5.96434585,10.9207385 6.32555138,9.25026073 6.6828834,7.5792 C6.97397826,6.21848745 7.26991502,4.85874656 7.5648834,3.49881134 C7.75952767,2.6017749 7.94700593,1.70318381 8.15540119,0.80925668 C8.27412451,0.299135223 8.4091166,0.199442915 8.95489526,0.196722267 C10.3747332,0.189531984 11.7945711,0.189531984 13.2142154,0.196722267 C13.7361719,0.199248583 13.8649664,0.345386235 13.7365593,0.828495547 C13.3542431,2.26635789 13.0885198,3.7289004 12.7821245,5.1834753 C12.4757292,6.63746721 12.1460929,8.08679514 11.8242036,9.53767773 C11.37933,11.5431838 11.0252905,13.5706494 10.4603379,15.5472 C10.0123656,17.1140988 9.44605731,18.6277506 8.26540909,19.8285279 C7.44712846,20.6608518 6.45686364,21.0512648 5.32172925,21.2360745 C4.52455929,21.3656939 3.73533004,21.3596696 3.07973715,21.3757992" id="Fill-4" fill="#121B28" mask="url(#mask-4)"/>
                </g>
                <g id="Group-9" transform="translate(0.000000, 0.013409)">
                    <mask id="mask-6" fill="white">
                        <use xlink:href="#path-5"/>
                    </mask>
                    <g id="Clip-8"/>
                    <path d="M22.0749261,4.49528745 C21.3174597,4.11595142 20.5780051,3.71251822 19.7430684,3.49408907 C19.0377008,3.30947368 18.3319458,3.16625101 17.6095348,3.12369231 C17.0308312,3.08968421 16.4486415,3.1102834 15.8680012,3.11222672 C15.2007877,3.1145587 14.533768,3.1157247 13.8866968,3.32365992 C13.2632542,3.52382186 12.616183,3.66354656 12.014432,3.91423482 C10.4042107,4.58506883 8.92762569,5.46111741 7.60520672,6.63585425 C5.54546364,8.46548988 4.11555455,10.6641619 3.29088261,13.2886154 C2.77725415,14.9229474 2.5969419,16.5996437 2.75168893,18.283336 C2.92774032,20.1949798 3.57074427,21.9643725 4.84396957,23.4531498 C4.89742411,23.5155304 4.97896166,23.6474818 4.96695375,23.65817 C4.84183913,23.7728259 4.74461383,23.6754656 4.64099723,23.5971498 C3.22387075,22.5232713 2.09106047,21.1806316 1.29176008,19.6133441 C0.712475494,18.4774737 0.26082332,17.2541538 0.183933992,15.9393036 C0.160111858,15.5312065 0.00129762846,15.1501215 -5.81027668e-05,14.7229798 C-0.00509367589,12.9963401 0.282127668,11.3202267 0.794206719,9.68317409 C1.32797747,7.97577328 2.23050711,6.47980567 3.4587996,5.17544939 C4.13685889,4.45564372 4.79768103,3.69833198 5.58729763,3.12291498 C6.78034111,2.25347368 8.05298538,1.48955466 9.4625585,0.989149798 C11.4076455,0.298493927 13.4121909,0.0549959514 15.4543095,0.241165992 C16.1230723,0.302186235 16.7835071,0.531497976 17.4412304,0.740793522 C18.2682265,1.00391903 19.0144597,1.37062348 19.7304794,1.82574899 C20.7445664,2.47093117 21.5053253,3.38876113 22.2804162,4.28774089 C22.276349,4.42124696 22.2021711,4.48459919 22.0749261,4.49528745" id="Fill-7" fill="#1169AD" mask="url(#mask-6)"/>
                </g>
                <path d="M23.0427439,11.3133474 C21.5820403,10.5274688 20.0144277,10.1347239 18.3765107,10.3597603 C16.2803565,10.6479547 14.3782656,11.4616227 12.8050364,12.9268858 C12.1492498,13.5374769 11.4996609,14.1599223 11.0055937,14.9226753 C10.284732,16.0352259 9.71977945,17.2006348 9.46412727,18.5255903 C9.33533281,19.193898 9.30356996,19.8507401 9.28342767,20.5198251 C9.23733281,22.063987 9.67930119,23.4552097 10.556653,24.7148696 C10.6312182,24.8217522 10.7212775,24.9356308 10.6033289,25.0473717 C10.4861549,25.1581409 10.3714988,25.0675822 10.2740798,24.9832421 C8.9200917,23.8094769 7.95326166,22.3910478 7.55758182,20.6185457 C7.26900474,19.3254607 7.30928933,18.0446186 7.51555415,16.7287968 C7.66507194,15.7750154 7.97030514,14.9098494 8.30633281,14.0254445 C8.52576759,13.4476955 8.86411937,12.945736 9.22590593,12.4962462 C10.906819,10.4064 13.0103328,8.86107206 15.6853842,8.43023806 C17.7495818,8.09773603 19.8064198,8.36999514 21.6141905,9.60419757 C21.8252972,9.7483919 22.0005739,9.94641619 22.1897953,10.1222866 C22.541898,10.449736 22.892064,10.7791287 23.2430047,11.1077441 C23.2431984,11.2418332 23.163404,11.2976065 23.0427439,11.3133474" id="Fill-10" fill="#1169AD"/>
                <path d="M21.2475427,25.306766 C20.5379142,25.306766 19.8280921,25.3133733 19.1186573,25.304434 C18.6212976,25.2982154 18.5052858,25.1849198 18.6147126,24.7496162 C18.9077443,23.58343 19.2003885,22.418604 19.3954202,21.2298753 C19.4556534,20.8635595 19.7603055,20.6338591 20.14727,20.6313328 C21.5663332,20.6221992 22.9857838,20.6204502 24.4050407,20.6315271 C24.8915545,20.6356081 25.0739972,20.8532599 24.9477206,21.2895352 C24.6308668,22.3853733 24.4124004,23.5012275 24.2045862,24.6207741 C24.0967087,25.2020211 23.9799221,25.2972437 23.3764281,25.3046283 C22.6667996,25.3131789 21.9571711,25.3065717 21.2475427,25.306766" id="Fill-12" fill="#121B28"/>
                <path d="M23.4262996,16.9550575 C22.1484261,16.4459077 20.8542838,16.3862478 19.5537502,16.8483692 C17.6712206,17.5174543 16.2852759,18.757681 15.5156079,20.6083045 C15.1807423,21.4136162 14.8464577,22.2579887 14.9303194,23.1682397 C14.9909399,23.8264421 15.1214775,24.4751223 15.4842324,25.0509279 C15.5080545,25.089017 15.469513,25.1667498 15.4600229,25.2260211 C15.4102482,25.2174704 15.34343,25.226604 15.3132166,25.1976486 C14.6380625,24.5481911 14.0796949,23.8122559 13.9638767,22.8576972 C13.921268,22.5073166 13.7498648,22.208434 13.7457976,21.8395919 C13.7295289,20.3939563 14.1509676,19.0684178 15.0041099,17.9585879 C15.8566711,16.8495352 16.8998095,15.9387012 18.3272008,15.5024259 C20.2959162,14.9007741 21.9803154,15.2433814 23.4681336,16.648596 C23.5124854,16.6903773 23.5746553,16.7133085 23.6284972,16.7451789 C23.6294656,16.8814057 23.545604,16.9352356 23.4262996,16.9550575" id="Fill-14" fill="#1269AE"/>
                <path d="M23.0427439,11.3133474 C23.163404,11.2976065 23.2431984,11.2418332 23.2430047,11.1077441 C23.6220285,11.2838089 23.836234,11.6435174 24.1323644,11.9116955 C24.2020877,11.9746591 24.2042182,12.0216874 24.1220996,12.0459789 C24.0649652,12.0628858 23.9795542,12.0908696 23.9460482,12.0642462 C23.6400403,11.8201652 23.3427478,11.5652016 23.0427439,11.3133474" id="Fill-16" fill="#8BB6D7"/>
                <path d="M22.0749261,4.50869636 C22.2021711,4.4980081 22.276349,4.43465587 22.2804162,4.3011498 C22.5556296,4.40744939 22.7032107,4.66241296 22.9063767,4.85149798 C22.9482107,4.89036437 23.1076059,4.95449393 22.954602,5.05068826 C22.9088945,5.07964372 22.8070209,5.09402429 22.7804874,5.06662348 C22.5687996,4.84897166 22.1603372,4.8820081 22.0749261,4.50869636" id="Fill-18" fill="#7FAED3"/>
                <path d="M23.4262996,16.9550575 C23.545604,16.9352356 23.6294656,16.8814057 23.6284972,16.7451789 C23.9401217,16.8549765 24.0964182,17.1441425 24.3239874,17.3513004 C24.3937107,17.4146526 24.3964221,17.4620696 24.3152719,17.4867498 C24.2579439,17.5040453 24.1744696,17.5318348 24.1380585,17.5054057 C23.8955763,17.3293409 23.6623905,17.1400615 23.4262996,16.9550575" id="Fill-20" fill="#8AB4D6"/>
            </g>
        </g>
    </g>
</symbol><symbol id="js" viewBox="0 0 34 48">
    <g id="Page-1" stroke="none" stroke-width="1" fill="none" fill-rule="evenodd">
        <g id="shockolada" transform="translate(-1042.000000, -1424.000000)">
            <rect fill="#FFFFFF" x="0" y="0" width="1920" height="4125"/>
            <g id="Group-8" transform="translate(1042.000000, 1424.000000)">
                <polygon id="Fill-1" fill="#E5A329" points="16.9055556 9.69278609 0 9.69278609 3.16787654 43.8712904 16.9055556 47.743847 30.6381975 43.8712904 33.8115309 9.69278609"/>
                <polygon id="Fill-2" fill="#F0BE22" points="16.9057235 12.4770365 16.9057235 44.8494887 28.0300198 41.7136278 30.7391062 12.4770365"/>
                <polygon id="Fill-3" fill="#FEFEFE" points="25.7561753 16.6709009 8.64578025 16.6709009 7.45661975 29.4681183 7.48180494 29.3879791 22.0161753 29.3879791 21.5418543 34.801127 16.9056815 36.1301009 12.1985704 34.7810922 11.9160765 31.5049878 7.64299012 31.5049878 8.25373086 38.0517704 16.9056815 40.4947617 25.5576321 38.0517704 26.7484716 25.2040487 11.3259037 25.2040487 11.5223481 20.9199443 22.2273111 20.9199443 22.3847185 23.3721183 26.6960025 23.3721183"/>
                <path d="M11.9162025,31.5050296 L7.64311605,31.5050296 L8.25343704,38.0518122 L16.9058074,40.4893774 L16.9058074,36.1301426 L12.1986963,34.7811339 L11.9162025,31.5050296 Z M16.9058074,16.6709426 L8.64548642,16.6709426 L7.45632593,29.46816 L7.48193086,29.3880209 L16.9058074,29.3880209 L16.9058074,25.2040904 L11.9208198,25.2040904 L12.1172642,20.9199861 L16.9058074,20.9199861 L16.9058074,16.6709426 Z" id="Fill-4" fill="#EAEAEA"/>
                <polygon id="Fill-5" fill="#231F20" points="13.6154889 0.417182609 13.6154889 4.6512 10.6087975 4.6512 10.6087975 6.79826087 13.6154889 6.79826087 15.225242 6.79826087 15.7700815 6.79826087 15.7700815 0.417182609"/>
                <path d="M23.2028173,0.449697391 L17.9584222,0.449697391 L17.9584222,2.68441043 C18.6594099,3.3818713 19.0258543,3.71578435 20.0408173,4.72503652 C19.4472864,4.72503652 17.9584222,4.72712348 17.9584222,4.72712348 L17.9584222,6.76566261 L23.2028173,6.76566261 L23.2028173,4.72670609 L21.1082494,2.68441043 L23.2028173,2.68441043 L23.2028173,0.449697391 Z" id="Fill-6" fill="#231F20"/>
            </g>
        </g>
    </g>
</symbol><symbol id="mouse" viewBox="0 0 13 17">
    <g id="Page-1" stroke="none" stroke-width="1" fill="none" fill-rule="evenodd">
        <g id="shockolada" transform="translate(-391.000000, -738.000000)">
            <g id="Scroll-Down" transform="translate(392.000000, 736.000000)" stroke-linecap="round" stroke-linejoin="round">
                <g id="Mouse-Line" transform="translate(0.000000, 3.000000)">
                    <g id="mouse-09">
                        <circle id="Oval" stroke="#111111" cx="5.5" cy="5.5" r="1.5"/>
                        <rect id="Rectangle-path" stroke="#0E65F3" x="0" y="0" width="11" height="15" rx="3"/>
                    </g>
                </g>
            </g>
        </g>
    </g>
</symbol><symbol id="telegram" viewBox="0 0 16 14">
    <g id="Page-1" stroke="none" stroke-width="1" fill="none" fill-rule="evenodd">
        <g id="shockolada" transform="translate(-1384.000000, -29.000000)">

            <g id="icon-telegram" transform="translate(1384.000000, 28.000000)">
                <g id="telegram">
                    <rect id="Rectangle" fill="#FFFFFF" opacity="0" x="0" y="0" width="16" height="16"/>
                    <path d="M0.282392393,7.71282853 L3.96862615,9.09563953 L5.39576179,13.7071534 C5.48855761,14.0030107 5.84694145,14.1123492 6.08373077,13.916183 L8.13803813,12.2342989 C8.35242846,12.0574277 8.6596146,12.0477802 8.88680436,12.211788 L12.5922373,14.9163091 C12.8482257,15.1028278 13.2098094,14.9613308 13.2738065,14.6526103 L15.990484,1.52555327 C16.0608808,1.18789011 15.7280958,0.904896235 15.4081103,1.03031398 L0.279192537,6.89600529 C-0.095190579,7.04071807 -0.0919907233,7.57454743 0.282392393,7.71282853 Z M5.35337814,8.37985335 L12.8013195,4.01988956 C12.9336098,3.94130333 13.0725146,4.11419303 12.9567606,4.2147834 L6.81187821,9.64351985 C6.59690655,9.83527024 6.45800178,10.0898896 6.4183147,10.3665131 L6.20995755,11.8407907 C6.1834995,12.038828 5.89246093,12.0576887 5.83293032,11.8659383 L5.02926702,9.1782894 C4.93666384,8.87337484 5.06895409,8.54645614 5.35337814,8.37985335 Z" id="Shape" fill="#50B1DF" fill-rule="nonzero"/>
                </g>
            </g>
        </g>
    </g>
</symbol><symbol id="twitter" viewBox="0 0 16 13">
    <g id="Page-1" stroke="none" stroke-width="1" fill="none" fill-rule="evenodd">
        <g id="shockolada" transform="translate(-1513.000000, -29.000000)">
            <rect fill="#FFFFFF" x="0" y="0" width="1920" height="4125"/>
            <g id="icon/twitter" transform="translate(1513.000000, 28.000000)">
                <rect id="Rectangle-9" fill="#FAFAFA" opacity="0" x="0" y="0" width="16" height="16"/>
                <path d="M14.36218,4.23829181 C14.5693646,8.85532459 11.1266401,14.003096 5.03179517,14.003096 C3.17814143,14.003096 1.45265124,13.4593838 0,12.5280358 C1.74121578,12.7332547 3.47967959,12.2504791 4.85959998,11.1685587 C3.42346061,11.1422183 2.21101774,10.193179 1.79350337,8.8891346 C2.30773011,8.98741953 2.81370092,8.95872033 3.27564008,8.83330876 C1.696791,8.51565187 0.607400855,7.09366554 0.642783429,5.57300113 C1.08545874,5.81871345 1.59182269,5.96653398 2.13003096,5.98304585 C0.667944371,5.00648681 0.253968254,3.07617082 1.11415794,1.60071748 C2.73271414,3.58685931 5.15130965,4.89365571 7.87969925,5.03086147 C7.40124822,2.97709961 8.95886776,1 11.0774977,1 C12.0218193,1 12.8749324,1.39825053 13.4732911,2.03631628 C14.2210428,1.88928203 14.9235835,1.61604993 15.5577178,1.23981522 C15.3127918,2.00643766 14.7922748,2.65000737 14.1145019,3.05572755 C14.7785149,2.97670647 15.4110767,2.80018674 16,2.53914197 C15.5600767,3.19765099 15.0033908,3.77556637 14.36218,4.23829181" id="Twitter" fill="#4DC8F1"/>
            </g>
        </g>
    </g>
</symbol><symbol id="vk" viewBox="0 0 16 10">

    <g id="Page-1" stroke="none" stroke-width="1" fill="none" fill-rule="evenodd">
        <g id="shockolada" transform="translate(-1448.000000, -32.000000)">

            <g id="icon-vk" transform="translate(1448.000000, 28.000000)">
                <rect id="Rectangle-9" fill="#FFFFFF" opacity="0" x="0" y="0" width="16" height="16"/>
                <path d="M9.36387662,12.2500002 C9.40554402,11.608843 9.69461161,10.6109088 10.4170202,11.1551892 C10.8534862,11.4848825 11.1998465,11.9624951 11.5920409,12.3817733 C11.9748601,12.7901139 12.431639,13.146891 13.2826957,13.1250156 C13.7873921,13.1119945 15.2368968,13.159912 15.6145076,13.0224096 C16.7556735,12.6083398 14.7337629,10.716119 14.2400042,10.292674 C14.032188,10.1145459 13.7993714,9.86089557 13.6212433,9.67235058 C13.4009269,9.43953398 13.2951959,9.20359232 13.470199,8.83848172 L14.2353166,7.76242109 C14.4618831,7.5150209 15.2999187,6.31656228 15.5025265,5.9884315 C15.7941983,5.5155065 16.3926463,4.58580262 15.6212785,4.43684166 C15.1874167,4.35298602 13.7790586,4.43111239 13.2431116,4.43475829 C12.1873639,4.44152925 12.401951,4.32486052 11.8811085,5.52748588 C11.5342274,6.32749998 10.4633752,8.21294987 9.89565682,8.42805782 C8.84303411,8.82702319 9.66648612,5.00924758 9.2227283,4.34881928 C8.95345272,3.94829139 7.70551407,3.99829227 7.12164961,4.00610491 C6.44351266,4.01443839 5.50599614,4.05037652 5.30807599,4.60976138 C5.36849372,4.66132478 5.30234672,4.62642834 5.41953629,4.67434585 C5.50391277,4.70872145 5.63568593,4.71653409 5.77891762,4.79309794 C5.90600319,4.86028662 6.02163023,4.97851787 6.08777723,5.08476975 C6.40757453,5.59623709 6.36903218,7.75096256 6.10444419,8.2733676 C5.60912296,9.24942646 4.16222246,6.50719064 3.91430143,6.01864037 C3.56012852,5.32123225 3.42106357,4.6430953 3.02001484,4.46965474 C2.72938472,4.34465254 1.08195986,4.41444543 0.638722879,4.42173723 C0.232986563,4.42798734 -0.117019604,4.49205097 0.0371497794,4.97278861 C0.114755314,5.21498037 0.299133562,5.55613222 0.41059386,5.80040736 C1.09758513,7.30824642 2.17156239,9.15932071 3.11793323,10.4135095 C4.18618122,11.8286386 5.76537571,13.0823065 7.76176506,13.0984526 C9.19564449,13.1099112 9.30397973,13.1734539 9.36387662,12.2500002" id="VK" fill="#3E6FA1"/>
            </g>
        </g>
    </g>
</symbol><symbol id="whatsapp" viewBox="0 0 16 16">
    
    <g id="Page-1" stroke="none" stroke-width="1" fill="none" fill-rule="evenodd">
        <g id="shockolada" transform="translate(-1352.000000, -28.000000)">
            
            <g id="icon-Whatsapp" transform="translate(1352.000000, 28.000000)">
                <rect id="Rectangle-9" fill="#FFFFFF" opacity="0" x="0" y="0" width="16" height="16"/>
                <path d="M7.99767783,-3.55271368e-15 L7.99767783,0.000132732718 L8.00232217,0.000132732718 C12.4125828,0.000132732718 16,3.58856176 16,8.00006637 C16,12.4114382 12.4125828,16 8.00232217,16 C6.37547791,16 4.86620168,15.5156583 3.60148287,14.6785131 L0.526534911,15.6612661 L1.52334193,12.6889824 C0.564220374,11.3720083 0,9.74948359 0,7.99993363 C0,3.58842903 3.58741717,-3.55271368e-15 7.99767783,-3.55271368e-15 Z M5.7642834,4.06361215 C5.60916261,3.69209328 5.49159458,3.67802361 5.25659122,3.66846685 C5.17657596,3.66382121 5.08740473,3.65917556 4.98854674,3.65917556 C4.68281679,3.65917556 4.36315384,3.74850468 4.17034758,3.94601097 C3.93534422,4.18585899 3.35228111,4.74546013 3.35228111,5.8930672 C3.35228111,7.04067428 4.18919031,8.15058527 4.30198131,8.30588255 C4.41954933,8.46091436 5.93360259,10.8501033 8.28443235,11.8238305 C10.1227929,12.5857163 10.6683032,12.5151025 11.0866915,12.4257734 C11.697886,12.2941025 12.464334,11.8424131 12.6571403,11.2970143 C12.8499465,10.7513501 12.8499465,10.2857238 12.7934183,10.1869706 C12.7370228,10.0882175 12.5817693,10.0319388 12.346766,9.91420489 C12.1117626,9.7966037 10.9691235,9.23222419 10.7528301,9.15696473 C10.5411812,9.07705964 10.3390862,9.10533171 10.1793211,9.33111006 C9.95360641,9.64621753 9.73266875,9.96610338 9.5539282,10.1588313 C9.4128731,10.3093502 9.18238138,10.3281982 8.98970782,10.2481604 C8.7310847,10.140116 8.0070992,9.88593282 7.11366181,9.09112931 C6.42245204,8.47511676 5.95231263,7.70858532 5.81603457,7.47816132 C5.67962381,7.24309168 5.80196887,7.10650971 5.90998283,6.97961723 C6.02755086,6.83374398 6.14034186,6.73034519 6.25790988,6.59389595 C6.37547791,6.45757945 6.44129477,6.38696565 6.516533,6.22702272 C6.59654826,6.07185818 6.54002007,5.91191525 6.48362457,5.79431406 C6.42722907,5.67671287 5.95708966,4.5291058 5.7642834,4.06361215 Z" id="Whatsapp" fill="#67C15E"/>
            </g>
        </g>
    </g>
</symbol></svg>