<?xml version="1.0" encoding="UTF-8"?>
<svg width="34px" height="48px" viewBox="0 0 34 48" version="1.1" xmlns="http://www.w3.org/2000/svg" xmlns:xlink="http://www.w3.org/1999/xlink">
    <g id="Page-1" stroke="none" stroke-width="1" fill="none" fill-rule="evenodd">
        <g id="shockolada" transform="translate(-1100.000000, -1424.000000)">
            <rect fill="#FFFFFF" x="0" y="0" width="1920" height="4125"></rect>
            <g id="CSS3" transform="translate(1100.000000, 1424.000000)" fill-rule="nonzero">
                <g id="#000000ff" transform="translate(6.760234, 0.000000)" fill="#000000">
                    <path d="M0.0367836257,0.096 C2.12450292,0.07 4.21222222,0.088 6.29994152,0.087 C6.30491228,0.744 6.3148538,1.401 6.29099415,2.058 C4.84450292,2.048 3.39900585,2.058 1.95350877,2.067 C1.94356725,3.021 1.92467836,3.975 1.93362573,4.929 C3.38508772,4.938 4.83754386,4.952 6.28900585,4.946 C6.30590643,5.486 6.29994152,6.028 6.28403509,6.569 C4.2022807,6.555 2.12052632,6.561 0.0387719298,6.563 C0.0437426901,4.407 0.0477192982,2.252 0.0367836257,0.096 Z" id="Shape"></path>
                    <path d="M7.0445614,0.089 C9.15812865,0.085 11.2716959,0.072 13.3862573,0.096 C13.3783041,0.717 13.384269,1.337 13.384269,1.958 C11.8463158,1.953 10.3073684,1.96 8.7694152,1.978 C8.77140351,2.222 8.77140351,2.466 8.7694152,2.71 C10.3053801,2.735 11.8403509,2.738 13.3753216,2.747 C13.3812865,4.02 13.3783041,5.292 13.3862573,6.564 C11.2716959,6.56 9.1571345,6.562 7.0425731,6.572 C7.03163743,6.058 7.03064327,5.545 7.04555556,5.031 C8.51093567,5.035 9.97730994,5.037 11.4426901,5.025 C11.4516374,4.694 11.455614,4.362 11.4546199,4.031 C9.9822807,4.031 8.50894737,4.036 7.03660819,4.026 C7.03660819,2.714 7.03660819,1.401 7.0445614,0.089 Z" id="Shape"></path>
                    <path d="M14.0940936,0.1 C16.2036842,0.1 18.314269,0.1 20.4238596,0.1 C20.432807,0.724 20.4417544,1.348 20.4218713,1.971 C18.8769591,1.97 17.3320468,1.979 15.7871345,1.982 C15.7911111,2.237 15.797076,2.492 15.81,2.747 C17.3459649,2.74 18.8819298,2.759 20.4169006,2.775 C20.4308187,4.042 20.4407602,5.309 20.4228655,6.576 C18.3083041,6.57 16.1937427,6.57 14.0791813,6.58 C14.0662573,6.068 14.0622807,5.554 14.084152,5.042 C15.5465497,5.053 17.0099415,5.051 18.4733333,5.037 C18.4773099,4.705 18.484269,4.373 18.4812865,4.042 C17.012924,4.056 15.5435673,4.048 14.0742105,4.043 C14.0742105,2.729 14.084152,1.414 14.0940936,0.1 Z" id="Shape"></path>
                </g>
                <g id="#0170baff" transform="translate(0.000000, 9.200000)" fill="#0170BA">
                    <path d="M0,0.046 C11.3253801,0.045 22.6497661,0.044 33.9751462,0.046 C33.3518129,7.131 32.7384211,14.216 32.0892398,21.299 C31.7035088,25.826 31.305848,30.353 30.8863158,34.877 C28.4695322,35.521 26.0766082,36.255 23.6608187,36.902 C21.4418713,37.557 19.2050292,38.15 16.9850877,38.8 L16.9194737,38.8 C14.8069006,38.168 12.6734503,37.612 10.5608772,36.98 C8.06754386,36.304 5.59608187,35.55 3.10175439,34.877 C2.77666667,31.486 2.48339181,28.093 2.19409357,24.7 C1.64830409,18.431 1.05479532,12.166 0.529883041,5.896 C0.347953216,4.009 0.217719298,2.116 0,0.233 L0,0.046 Z M17.0407602,2.841 C17.0169006,4.202 17.058655,5.564 17.0169006,6.924 C13.1317544,6.91 9.24561404,6.921 5.36046784,6.925 C5.42707602,8.246 5.60304094,9.558 5.78397661,10.868 C9.39871345,11.003 13.0184211,10.863 16.6331579,10.972 C13.4707602,12.399 10.2695906,13.743 7.09327485,15.14 C6.82087719,15.262 6.52959064,15.354 6.28602339,15.532 C6.3128655,16.983 6.54549708,18.426 6.64789474,19.874 C8.5745614,19.867 10.5002339,19.836 12.4269006,19.833 C13.9708187,19.825 15.515731,19.856 17.0596491,19.822 C16.9860819,22.208 17.0825146,24.597 17.0099415,26.983 C15.9710526,26.828 14.9450877,26.595 13.9101754,26.41 C13.0939766,26.231 12.2578947,26.138 11.4536257,25.903 C11.3392982,24.758 11.2597661,23.609 11.1583626,22.463 C10.925731,22.391 10.6791813,22.398 10.4385965,22.394 C9.27146199,22.401 8.10333333,22.39 6.93520468,22.408 C7.04953216,24.611 7.24637427,26.811 7.58140351,28.993 C8.73263158,29.295 9.88584795,29.591 11.0350877,29.906 C12.795731,30.388 14.5782456,30.789 16.3418713,31.263 C16.5516374,31.308 16.7633918,31.386 16.9811111,31.368 C17.0984211,32.817 17.0079532,34.275 17.0298246,35.728 C17.4364327,35.662 17.8360819,35.561 18.2287719,35.439 C21.5671345,34.527 24.9015205,33.598 28.2378947,32.677 C28.4039181,31.357 28.481462,30.028 28.6126901,28.705 C28.9596491,24.683 29.3095906,20.661 29.6734503,16.64 C30.0999415,12.04 30.4687719,7.435 30.8982456,2.835 C26.2784211,2.839 21.6595906,2.826 17.0407602,2.841 Z" id="Shape"></path>
                </g>
                <g id="#29a9dfff" transform="translate(16.900585, 12.000000)" fill="#29A9DF">
                    <path d="M0.140175439,0.041 C4.75900585,0.026 9.37783626,0.039 13.9976608,0.035 C13.5681871,4.635 13.1993567,9.24 12.7728655,13.84 C12.4090058,17.861 12.0590643,21.883 11.7121053,25.905 C11.5808772,27.228 11.5033333,28.557 11.3373099,29.877 C8.00093567,30.798 4.66654971,31.727 1.32818713,32.639 C0.935497076,32.761 0.535847953,32.862 0.129239766,32.928 C0.107368421,31.475 0.197836257,30.017 0.0805263158,28.568 C0.110350877,28.562 0.170994152,28.55 0.200818713,28.544 C3.30555556,27.76 6.3894152,26.897 9.48719298,26.085 C9.87888889,21.665 10.3133333,17.247 10.5887135,12.818 C7.95421053,12.832 5.31871345,12.824 2.68421053,12.835 C2.30046784,12.837 1.91672515,12.835 1.53497076,12.807 C2.95263158,12.073 4.44385965,11.491 5.89929825,10.836 C7.29608187,10.199 8.70976608,9.602 10.1115205,8.977 C10.3819298,8.852 10.6702339,8.748 10.9078363,8.562 C11.0012865,8.217 10.9963158,7.856 11.0330994,7.503 C11.1136257,6.383 11.2567836,5.269 11.3104678,4.148 C7.5794152,4.118 3.84836257,4.144 0.116315789,4.124 C0.158070175,2.764 0.116315789,1.402 0.140175439,0.041 Z" id="Shape"></path>
                    <path d="M0.159064327,17.022 C1.96046784,16.991 3.7628655,17.04 5.56526316,17.028 C5.4648538,18.881 5.31175439,20.731 5.21631579,22.584 C4.11181287,22.947 2.99040936,23.254 1.87695906,23.59 C1.28345029,23.772 0.674035088,23.916 0.109356725,24.183 C0.181929825,21.797 0.085497076,19.408 0.159064327,17.022 Z" id="Shape"></path>
                </g>
                <g id="#cfcfcfff" transform="translate(5.269006, 16.100000)" fill="#CFCFCF">
                    <path d="M0.0914619883,0.025 C3.97660819,0.021 7.86274854,0.01 11.7478947,0.024 C11.7985965,4.324 11.7349708,8.624 11.7906433,12.922 C10.2467251,12.956 8.70181287,12.925 7.15789474,12.933 C5.23122807,12.936 3.30555556,12.967 1.37888889,12.974 C1.27649123,11.526 1.04385965,10.083 1.01701754,8.632 C1.2605848,8.454 1.55187135,8.362 1.82426901,8.24 C5.0005848,6.843 8.20175439,5.499 11.364152,4.072 C7.7494152,3.963 4.1297076,4.103 0.51497076,3.968 C0.334035088,2.658 0.158070175,1.346 0.0914619883,0.025 Z" id="Shape"></path>
                    <path d="M1.66619883,15.508 C2.83432749,15.49 4.00245614,15.501 5.16959064,15.494 C5.41017544,15.498 5.65672515,15.491 5.88935673,15.563 C5.99076023,16.709 6.0702924,17.858 6.18461988,19.003 C6.98888889,19.238 7.82497076,19.331 8.64116959,19.51 C9.67608187,19.695 10.7020468,19.928 11.7409357,20.083 C11.8403509,21.535 11.6663743,22.997 11.8323977,24.444 C11.8025731,24.45 11.7419298,24.462 11.7121053,24.468 C11.494386,24.486 11.2826316,24.408 11.0728655,24.363 C9.30923977,23.889 7.52672515,23.488 5.76608187,23.006 C4.61684211,22.691 3.46362573,22.395 2.31239766,22.093 C1.97736842,19.911 1.78052632,17.711 1.66619883,15.508 Z" id="Shape"></path>
                </g>
                <g id="#ffffffff" transform="translate(17.000000, 16.100000)" fill="#FFFFFF">
                    <path d="M0.0169005848,0.024 C3.74894737,0.044 7.48,0.018 11.2110526,0.048 C11.1573684,1.169 11.0142105,2.283 10.9336842,3.403 C10.8969006,3.756 10.9018713,4.117 10.8084211,4.462 C10.5708187,4.648 10.2825146,4.752 10.0121053,4.877 C8.61035088,5.502 7.19666667,6.099 5.79988304,6.736 C4.34444444,7.391 2.85321637,7.973 1.43555556,8.707 C1.81730994,8.735 2.20105263,8.737 2.58479532,8.735 C5.21929825,8.724 7.85479532,8.732 10.4892982,8.718 C10.2139181,13.147 9.77947368,17.565 9.38777778,21.985 C6.29,22.797 3.20614035,23.66 0.101403509,24.444 C-0.064619883,22.997 0.109356725,21.535 0.00994152047,20.083 C0.574619883,19.816 1.18403509,19.672 1.77754386,19.49 C2.89099415,19.154 4.01239766,18.847 5.11690058,18.484 C5.21233918,16.631 5.3654386,14.781 5.46584795,12.928 C3.66345029,12.94 1.86105263,12.891 0.0596491228,12.922 C0.00397660819,8.624 0.0676023392,4.324 0.0169005848,0.024 Z" id="Shape"></path>
                </g>
            </g>
        </g>
    </g>
</svg>