<?xml version="1.0" encoding="utf-8"?>
<!-- Generator: Adobe Illustrator 25.0.1, SVG Export Plug-In . SVG Version: 6.00 Build 0)  -->
<svg width="34" height="48" version="1.1" id="Layer_1" xmlns="http://www.w3.org/2000/svg" xmlns:xlink="http://www.w3.org/1999/xlink" x="0px" y="0px"
	 viewBox="0 0 34 48" style="enable-background:new 0 0 34 48;" xml:space="preserve">
<style type="text/css">
	.st0{fill:#FFCC33;}
	.st1{fill:#F8DC3D;}
	.st2{fill:#FFFFFF;}
	.st3{fill:#EBEBEB;}
	.st4{fill:#131313;}
</style>
<polygon class="st0" points="3.1,44.1 0,9.4 34,9.4 30.9,44.1 17,48 "/>
<polygon class="st1" points="17,45 28.3,41.9 30.9,12.3 17,12.3 "/>
<g>
	<g>
		<polygon class="st2" points="17,24 17,28.3 22.3,29.4 21.8,34.9 17,36.2 17,40.6 25.7,38.2 25.8,37.5 26.9,26.3 		"/>
		<polygon class="st2" points="25.7,16.3 17,13.9 17,18.3 25.7,20.8 		"/>
	</g>
	<g>
		<g>
			<polygon class="st3" points="17,24 11.5,25.1 12.2,19.6 17,18.3 17,18.3 17,13.9 17,13.9 8.3,16.3 7.1,25.1 7.1,25.1 7.1,25.2
				7.1,25.2 7.1,25.2 7.5,29.4 7.5,29.4 8.3,38.2 17,40.6 17,40.6 17,36.2 17,36.2 12.3,34.9 11.8,29.4 17,28.3 			"/>
		</g>
	</g>
</g>
<g>
	<polygon class="st4" points="23,1.8 20.2,1.8 23.1,5 23.1,6.5 17.1,6.5 17.1,4.7 20,4.7 17.1,1.5 17.1,0 23,0 	"/>
	<polygon class="st4" points="15.9,1.8 15.9,0 10.7,0 10.7,6.5 15.9,6.5 15.9,4.6 12.8,4.6 12.8,4 15.8,4 15.8,2.5 12.8,2.5
		12.8,1.8 	"/>
</g>
</svg>
