<?xml version="1.0" encoding="utf-8"?>
<!-- Generator: Adobe Illustrator 25.0.1, SVG Export Plug-In . SVG Version: 6.00 Build 0)  -->
<svg width="42" height="48" version="1.1" id="Layer_1" xmlns="http://www.w3.org/2000/svg" xmlns:xlink="http://www.w3.org/1999/xlink" x="0px" y="0px"
	 viewBox="0 0 42 48" enable-background="new 0 0 42 48" xml:space="preserve">
<g id="Page-1">
	<g id="shockolada" transform="translate(-1158.000000, -1424.000000)">
		<g id="Group-22" transform="translate(1158.000000, 1424.000000)">
			<g id="Group-3" transform="translate(25.371542, 15.365636)">
				<g id="Clip-2">
				</g>
				<defs>
					<filter id="Adobe_OpacityMaskFilter" filterUnits="userSpaceOnUse" x="-3.5" y="2.6" width="19.9" height="20.9">
						<feColorMatrix  type="matrix" values="1 0 0 0 0  0 1 0 0 0  0 0 1 0 0  0 0 0 1 0"/>
					</filter>
				</defs>
				<mask maskUnits="userSpaceOnUse" x="-3.5" y="2.6" width="19.9" height="20.9" id="mask-2_1_">
					<g filter="url(#Adobe_OpacityMaskFilter)">
						<polygon id="path-1_1_" fill-rule="evenodd" clip-rule="evenodd" fill="#FFFFFF" points="-3.5,2.6 16.4,2.6 16.4,23.6
							-3.5,23.6 						"/>
					</g>
				</mask>
				<path id="Fill-1" mask="url(#mask-2_1_)" fill-rule="evenodd" clip-rule="evenodd" fill="#121B28" d="M6.7,19.2
					c0.6,0,1.2,0,1.8,0c0.7,0,0.7,0,1-0.7c0-0.1,0-0.2,0.1-0.2c0.4-1.5,0.9-3,1.3-4.5c0.3-1.2,0.6-2.4,0.6-3.7c0-1.5-1.1-2.6-2.3-3
					C8.3,6.9,7.4,6.9,6.5,7C5.9,7.1,5.3,7.3,4.8,7.6c-1.2,0.8-1.9,1.8-2.4,3.1c-0.4,1.2-0.7,2.4-0.9,3.6c-0.1,0.9-0.1,1.7,0.1,2.5
					c0.1,0.5,0.3,1,0.7,1.4C3,19,3.9,19.2,4.7,19.2C5.4,19.3,6.1,19.2,6.7,19.2z M8.8,23.6c-1.7,0-3.4,0-5,0c-1,0-2-0.2-3-0.5
					c-2.3-0.8-3.6-2.4-4.1-4.7c-0.3-1.4-0.2-2.8,0-4.2c0.3-2.1,0.9-4.1,1.9-5.9c1.1-2.1,2.6-3.7,4.7-4.7C4.5,3,5.7,2.7,7.1,2.7
					c0.7,0,1.3,0,2,0c2.2,0.1,4.1,0.8,5.6,2.5c0.8,0.9,1.3,1.9,1.6,3.1c0.4,1.7,0.2,3.4-0.2,5c-0.5,1.9-1.2,3.8-2,5.6
					c-0.1,0.3,0,0.5,0.3,0.5c0.5,0,1,0,1.6,0c0.3,0,0.4,0.1,0.3,0.4c-0.3,1-0.6,2.1-0.8,3.1c-0.1,0.4-0.4,0.6-0.8,0.6
					c-0.2,0-0.3,0-0.5,0L8.8,23.6L8.8,23.6z"/>
			</g>
			<g id="Group-6" transform="translate(9.877470, 26.442559)">
				<g id="Clip-5">
				</g>
				<defs>
					<filter id="Adobe_OpacityMaskFilter_1_" filterUnits="userSpaceOnUse" x="-1.4" y="1" width="11.7" height="18.1">
						<feColorMatrix  type="matrix" values="1 0 0 0 0  0 1 0 0 0  0 0 1 0 0  0 0 0 1 0"/>
					</filter>
				</defs>
				<mask maskUnits="userSpaceOnUse" x="-1.4" y="1" width="11.7" height="18.1" id="mask-4_1_">
					<g filter="url(#Adobe_OpacityMaskFilter_1_)">
						<polygon id="path-3_1_" fill-rule="evenodd" clip-rule="evenodd" fill="#FFFFFF" points="-1.4,1 10.4,1 10.4,19.1 -1.4,19.1
													"/>
					</g>
				</mask>
				<path id="Fill-4" mask="url(#mask-4_1_)" fill-rule="evenodd" clip-rule="evenodd" fill="#121B28" d="M1.2,19.1
					c-0.9,0-1.6,0-2.3-0.1c-0.3,0-0.3-0.2-0.3-0.4c0.3-1.1,0.5-2.1,0.8-3.2c0.1-0.4,0.3-0.5,0.7-0.6c0.2,0,0.4,0,0.6,0
					c0.5,0.2,0.9,0,1.3-0.3c0.9-0.8,1.2-1.8,1.5-2.9C3.7,10.2,4,8.8,4.3,7.3C4.6,6.2,4.8,5,5.1,3.9c0.2-0.8,0.3-1.5,0.5-2.3
					C5.7,1.1,5.8,1,6.3,1c1.2,0,2.4,0,3.6,0c0.4,0,0.6,0.1,0.4,0.5C10,2.8,9.8,4,9.5,5.3C9.3,6.5,9,7.8,8.7,9
					c-0.4,1.7-0.7,3.4-1.2,5.1c-0.4,1.3-0.9,2.6-1.9,3.7c-0.7,0.7-1.5,1-2.5,1.2C2.5,19.1,1.8,19.1,1.2,19.1"/>
			</g>
			<g id="Group-9" transform="translate(0.000000, 0.013409)">
				<g id="Clip-8">
				</g>
				<defs>
					<filter id="Adobe_OpacityMaskFilter_2_" filterUnits="userSpaceOnUse" x="0.1" y="4.9" width="19" height="20.1">
						<feColorMatrix  type="matrix" values="1 0 0 0 0  0 1 0 0 0  0 0 1 0 0  0 0 0 1 0"/>
					</filter>
				</defs>
				<mask maskUnits="userSpaceOnUse" x="0.1" y="4.9" width="19" height="20.1" id="mask-6_1_">
					<g filter="url(#Adobe_OpacityMaskFilter_2_)">
						<polygon id="path-5_1_" fill-rule="evenodd" clip-rule="evenodd" fill="#FFFFFF" points="0.1,4.9 19.1,4.9 19.1,25 0.1,25
													"/>
					</g>
				</mask>
				<path id="Fill-7" mask="url(#mask-6_1_)" fill-rule="evenodd" clip-rule="evenodd" fill="#1169AD" d="M18.9,8.6
					c-0.6-0.3-1.3-0.7-2-0.9c-0.6-0.2-1.2-0.3-1.8-0.3c-0.5,0-1,0-1.5,0c-0.6,0-1.1,0-1.7,0.2c-0.5,0.2-1.1,0.3-1.6,0.5
					c-1.4,0.6-2.6,1.3-3.8,2.3c-1.8,1.6-3,3.4-3.7,5.7c-0.4,1.4-0.6,2.8-0.5,4.3c0.2,1.6,0.7,3.1,1.8,4.4c0,0.1,0.1,0.2,0.1,0.2
					c-0.1,0.1-0.2,0-0.3-0.1c-1.2-0.9-2.2-2.1-2.9-3.4c-0.5-1-0.9-2-0.9-3.1c0-0.3-0.2-0.7-0.2-1c0-1.5,0.2-2.9,0.7-4.3
					C1.2,11.6,2,10.3,3,9.2c0.6-0.6,1.1-1.3,1.8-1.8c1-0.7,2.1-1.4,3.3-1.8C9.8,5,11.5,4.8,13.3,5c0.6,0.1,1.1,0.2,1.7,0.4
					c0.7,0.2,1.3,0.5,2,0.9c0.9,0.6,1.5,1.3,2.2,2.1C19.1,8.5,19,8.6,18.9,8.6"/>
			</g>
			<path id="Fill-10" fill-rule="evenodd" clip-rule="evenodd" fill="#1169AD" d="M19.7,14.4c-1.2-0.7-2.6-1-4-0.8
				c-1.8,0.2-3.4,0.9-4.8,2.2c-0.6,0.5-1.1,1.1-1.5,1.7c-0.6,0.9-1.1,1.9-1.3,3.1C8,21.1,8,21.7,8,22.3c0,1.3,0.3,2.5,1.1,3.6
				c0.1,0.1,0.1,0.2,0,0.3c-0.1,0.1-0.2,0-0.3-0.1c-1.2-1-2-2.2-2.3-3.7c-0.2-1.1-0.2-2.2,0-3.3c0.1-0.8,0.4-1.6,0.7-2.3
				c0.2-0.5,0.5-0.9,0.8-1.3c1.4-1.8,3.2-3.1,5.5-3.5c1.8-0.3,3.5-0.1,5.1,1c0.2,0.1,0.3,0.3,0.5,0.4c0.3,0.3,0.6,0.6,0.9,0.8
				C19.9,14.3,19.8,14.4,19.7,14.4"/>
			<path id="Fill-12" fill-rule="evenodd" clip-rule="evenodd" fill="#121B28" d="M18.2,26.3c-0.6,0-1.2,0-1.8,0
				c-0.4,0-0.5-0.1-0.4-0.5c0.2-1,0.5-2,0.7-3c0.1-0.3,0.3-0.5,0.6-0.5c1.2,0,2.4,0,3.6,0c0.4,0,0.6,0.2,0.5,0.6
				c-0.3,0.9-0.5,1.9-0.6,2.8c-0.1,0.5-0.2,0.6-0.7,0.6C19.4,26.3,18.8,26.3,18.2,26.3"/>
			<path id="Fill-14" fill-rule="evenodd" clip-rule="evenodd" fill="#1269AE" d="M20.1,19.2c-1.1-0.4-2.2-0.5-3.3-0.1
				c-1.6,0.6-2.8,1.6-3.4,3.2c-0.3,0.7-0.6,1.4-0.5,2.2c0.1,0.6,0.2,1.1,0.5,1.6c0,0,0,0.1,0,0.1c0,0-0.1,0-0.1,0
				c-0.6-0.6-1.1-1.2-1.2-2c0-0.3-0.2-0.6-0.2-0.9c0-1.2,0.3-2.4,1.1-3.3c0.7-0.9,1.6-1.7,2.8-2.1c1.7-0.5,3.1-0.2,4.4,1
				c0,0,0.1,0.1,0.1,0.1C20.2,19.2,20.2,19.2,20.1,19.2"/>
			<path id="Fill-16" fill-rule="evenodd" clip-rule="evenodd" fill="#8BB6D7" d="M19.7,14.4c0.1,0,0.2-0.1,0.2-0.2
				c0.3,0.2,0.5,0.5,0.8,0.7c0.1,0.1,0.1,0.1,0,0.1c0,0-0.1,0-0.2,0C20.2,14.8,20,14.6,19.7,14.4"/>
			<path id="Fill-18" fill-rule="evenodd" clip-rule="evenodd" fill="#7FAED3" d="M18.9,8.6c0.1,0,0.2-0.1,0.2-0.2
				c0.2,0.1,0.4,0.3,0.5,0.5c0,0,0.2,0.1,0,0.2c0,0-0.1,0-0.1,0C19.3,8.9,19,8.9,18.9,8.6"/>
			<path id="Fill-20" fill-rule="evenodd" clip-rule="evenodd" fill="#8AB4D6" d="M20.1,19.2c0.1,0,0.2-0.1,0.2-0.2
				c0.3,0.1,0.4,0.3,0.6,0.5c0.1,0.1,0.1,0.1,0,0.1c0,0-0.1,0-0.2,0C20.5,19.5,20.3,19.4,20.1,19.2"/>
		</g>
	</g>
</g>
</svg>
