<?xml version="1.0" encoding="utf-8"?>
<!-- Generator: Adobe Illustrator 25.0.1, SVG Export Plug-In . SVG Version: 6.00 Build 0)  -->
<svg width="34" height="48"  version="1.1" id="Layer_1" xmlns="http://www.w3.org/2000/svg" xmlns:xlink="http://www.w3.org/1999/xlink" x="0px" y="0px"
	 viewBox="0 0 34 48" enable-background="new 0 0 34 48" xml:space="preserve">
<polygon fill="#0769AD" points="3.1,44.1 0,9.4 34,9.4 30.9,44.1 17,48 "/>
<polygon fill="#7ACEF4" points="17,45 28.3,41.9 30.9,12.3 17,12.3 "/>
<g id="Group-3" transform="translate(25.371542, 15.365636)">
	<g id="Clip-2">
	</g>
</g>
<g>
	<g id="Group-9" transform="translate(0.000000, 0.013409)">
		<g id="Clip-8">
		</g>
		<defs>
			<filter id="Adobe_OpacityMaskFilter" filterUnits="userSpaceOnUse" x="6.3" y="19.1" width="20.2" height="19.1">
				<feColorMatrix  type="matrix" values="1 0 0 0 0  0 1 0 0 0  0 0 1 0 0  0 0 0 1 0"/>
			</filter>
		</defs>
		<mask maskUnits="userSpaceOnUse" x="6.3" y="19.1" width="20.2" height="19.1" id="mask-6_2_">
			<g filter="url(#Adobe_OpacityMaskFilter)">
				<polygon id="path-5_2_" fill-rule="evenodd" clip-rule="evenodd" fill="#FFFFFF" points="6.3,38.2 6.3,19.1 26.4,19.1
					26.4,38.2 				"/>
			</g>
		</mask>
		<path id="Fill-7" mask="url(#mask-6_2_)" fill-rule="evenodd" clip-rule="evenodd" fill="#FFFFFF" d="M10,19.2
			c-0.3,0.6-0.7,1.3-0.9,2c-0.2,0.6-0.3,1.2-0.3,1.8c0,0.5,0,1,0,1.5c0,0.6,0,1.1,0.2,1.7c0.2,0.5,0.3,1.1,0.5,1.6
			c0.6,1.4,1.3,2.6,2.3,3.8c1.6,1.8,3.5,3,5.7,3.7c1.4,0.4,2.8,0.6,4.3,0.5c1.6-0.2,3.2-0.7,4.4-1.8c0.1,0,0.2-0.1,0.2-0.1
			c0.1,0.1,0,0.2-0.1,0.3c-0.9,1.2-2.1,2.2-3.4,2.9c-1,0.5-2,0.9-3.1,0.9c-0.3,0-0.7,0.2-1,0.2c-1.5,0-2.9-0.2-4.3-0.7
			c-1.5-0.5-2.7-1.2-3.9-2.3c-0.6-0.6-1.3-1.1-1.8-1.8c-0.7-1-1.4-2.1-1.8-3.3c-0.6-1.7-0.8-3.4-0.6-5.1c0.1-0.6,0.2-1.1,0.4-1.7
			c0.2-0.7,0.5-1.3,0.9-2c0.6-0.9,1.3-1.5,2.1-2.2C9.9,19.1,10,19.1,10,19.2"/>
	</g>
	<path id="Fill-10" fill-rule="evenodd" clip-rule="evenodd" fill="#FFFFFF" d="M15.8,18.4c-0.7,1.3-1,2.6-0.8,4
		c0.2,1.8,0.9,3.4,2.2,4.8c0.5,0.6,1.1,1.1,1.7,1.5c1,0.6,2,1.1,3.1,1.3c0.6,0.1,1.1,0.1,1.7,0.2c1.3,0,2.5-0.3,3.6-1.1
		c0.1-0.1,0.2-0.1,0.3,0c0.1,0.1,0,0.2-0.1,0.3c-1,1.2-2.2,2-3.7,2.3c-1.1,0.2-2.2,0.2-3.3,0c-0.8-0.1-1.6-0.4-2.3-0.7
		c-0.5-0.2-0.9-0.5-1.3-0.8c-1.8-1.4-3.1-3.2-3.5-5.5c-0.3-1.8-0.1-3.5,1-5.1c0.1-0.2,0.3-0.3,0.4-0.5c0.3-0.3,0.6-0.6,0.8-0.9
		C15.7,18.3,15.8,18.3,15.8,18.4"/>
	<path id="Fill-14" fill-rule="evenodd" clip-rule="evenodd" fill="#FFFFFF" d="M20.6,18.1c-0.4,1.1-0.5,2.2-0.1,3.3
		c0.6,1.6,1.6,2.8,3.2,3.5c0.7,0.3,1.4,0.6,2.2,0.5c0.6-0.1,1.1-0.2,1.6-0.5c0,0,0.1,0,0.2,0c0,0,0,0.1,0,0.1
		c-0.6,0.6-1.1,1-1.9,1.2c-0.5,0.1-0.6,0.1-0.9,0.1c-1.2,0-2.4-0.3-3.3-1.1c-1-0.7-1.7-1.6-2.1-2.8c-0.5-1.7-0.2-3.1,1-4.4
		c0,0,0.1-0.1,0.1-0.1C20.6,17.9,20.6,18,20.6,18.1"/>
</g>
<g id="Clip-5">
</g>
<g>
	<polygon id="Fill-5" fill-rule="evenodd" clip-rule="evenodd" fill="#121B28" points="13.7,0 13.7,4.2 10.7,4.2 10.7,6.4 13.7,6.4
		15.3,6.4 15.9,6.4 15.9,0 	"/>
	<polygon id="Fill-5_1_" fill-rule="evenodd" clip-rule="evenodd" fill="#121B28" points="20.7,0 20.7,4.2 17.3,4.2 17.3,6.4
		20.3,6.4 21.9,6.4 22.5,6.4 22.5,0 	"/>
	<polygon id="Fill-5_2_" fill-rule="evenodd" clip-rule="evenodd" fill="#121B28" points="19.1,6.3 19.1,2.1 22.5,2.1 22.5,0
		19.4,0 17.8,0 17.3,0 17.3,6.4 	"/>
	<polygon id="Fill-5_3_" fill-rule="evenodd" clip-rule="evenodd" fill="#121B28" points="23.3,4.5 21.7,4.5 21.7,0.9 20.8,0.9
		20.8,4.1 20.8,5.8 20.8,6.4 23.3,6.4 	"/>
</g>
</svg>
