<?xml version="1.0" encoding="UTF-8"?>
<svg width="49px" height="48px" viewBox="0 0 49 48" version="1.1" xmlns="http://www.w3.org/2000/svg" xmlns:xlink="http://www.w3.org/1999/xlink">
    <defs>
        <polygon id="path-1" points="0.170182241 0.174713192 23.5008261 0.174713192 23.5008261 24.7023022 0.170182241 24.7023022"></polygon>
        <polygon id="path-3" points="0.0119754592 0.191329555 13.78271 0.191329555 13.78271 21.3765182 0.0119754592 21.3765182"></polygon>
        <polygon id="path-5" points="0 0.180923077 22.2804162 0.180923077 22.2804162 23.7107174 0 23.7107174"></polygon>
    </defs>
    <g id="Page-1" stroke="none" stroke-width="1" fill="none" fill-rule="evenodd">
        <g id="shockolada" transform="translate(-1158.000000, -1424.000000)">
            <rect fill="#FFFFFF" x="0" y="0" width="1920" height="4125"></rect>
            <g id="Group-22" transform="translate(1158.000000, 1424.000000)">
                <g id="Group-3" transform="translate(25.371542, 15.365636)">
                    <mask id="mask-2" fill="white">
                        <use xlink:href="#path-1"></use>
                    </mask>
                    <g id="Clip-2"></g>
                    <path d="M12.1607542,19.6273749 C12.8696079,19.6273749 13.578268,19.6287352 14.2871217,19.6269862 C15.1625368,19.6250429 15.1631178,19.6242656 15.4309715,18.8257555 C15.461185,18.7357798 15.4747423,18.6403628 15.5012759,18.5490267 C16.0102561,16.7930429 16.547513,15.0446381 17.0214379,13.2789377 C17.4006553,11.8665328 17.7103431,10.4541279 17.6754814,8.9525247 C17.6359715,7.24706721 16.3735921,5.86420081 15.0333549,5.45454899 C13.9950585,5.13759352 12.9370071,5.18190121 11.8996791,5.33833846 C11.2293668,5.43919676 10.5565368,5.64110769 9.95827194,6.0427919 C8.60931937,6.94818462 7.70659605,8.17539109 7.16643399,9.6962332 C6.67740237,11.073464 6.35415731,12.4786785 6.13917708,13.9318931 C5.98985296,14.9396988 6.04543794,15.8981441 6.22361976,16.8600874 C6.33788854,17.4780632 6.62433518,18.0453182 7.08295968,18.5319255 C7.84488063,19.3405409 8.82313755,19.5418688 9.84187273,19.6159093 C10.6109597,19.6718769 11.3874063,19.6269862 12.1607542,19.6273749 Z M14.5960348,24.6951644 C12.6290625,24.6951644 10.6617028,24.7153749 8.69492411,24.6877798 C7.48987273,24.6706785 6.2972166,24.506468 5.14833123,24.1129457 C2.48025217,23.1990024 0.886299605,21.3569296 0.374414229,18.5670996 C0.0761533597,16.9417069 0.134256126,15.3273911 0.35833913,13.6957798 C0.693398419,11.2541927 1.39411779,8.93522915 2.539517,6.76201457 C3.81003083,4.35190931 5.59088063,2.44007126 8.10014545,1.28476761 C9.52269486,0.629868826 11.0091573,0.230710931 12.5802561,0.197674494 C13.353604,0.181544939 14.1304379,0.152589474 14.900687,0.203310121 C17.4252522,0.369852632 19.6693747,1.18371498 21.4142008,3.12334251 C22.3531415,4.1670996 22.9194498,5.40188502 23.2376593,6.7433587 C23.7063549,8.71835466 23.5076435,10.6826623 22.9684498,12.6174316 C22.3403589,14.8712939 21.544351,17.0678283 20.6668055,19.235213 C20.5285209,19.5768486 20.6327186,19.7908081 20.9900506,19.8034397 C21.6020664,19.8255935 22.2156316,19.7979984 22.8278411,19.8125733 C23.1909834,19.8211239 23.3135802,19.9719255 23.2140308,20.2937393 C22.8400427,21.5022899 22.5078885,22.7205571 22.2539794,23.9613668 C22.1643075,24.3995854 21.8269241,24.6415287 21.3684933,24.6772858 C21.1761731,24.6922494 20.9815289,24.6798121 20.7880466,24.6798121 L14.5960348,24.6798121 L14.5960348,24.6951644 Z" id="Fill-1" fill="#121B28" mask="url(#mask-2)"></path>
                </g>
                <g id="Group-6" transform="translate(9.877470, 26.442559)">
                    <mask id="mask-4" fill="white">
                        <use xlink:href="#path-3"></use>
                    </mask>
                    <g id="Clip-5"></g>
                    <path d="M3.07973715,21.3757992 C2.07843281,21.3756049 1.21773715,21.396204 0.362270751,21.2352972 C0.0655592885,21.1795239 -0.0322470356,21.0318316 0.029729249,20.7778397 C0.336705534,19.5189571 0.655108696,18.2631838 0.974673913,17.0076049 C1.09068577,16.551702 1.31147628,16.3733053 1.78172134,16.3581474 C2.00464229,16.3509571 2.2560336,16.3142283 2.44661067,16.3989571 C3.05049209,16.6667466 3.51085968,16.3682526 3.91448024,16.0238964 C4.96033004,15.1313296 5.35368577,13.8930462 5.62037747,12.5945198 C5.96434585,10.9207385 6.32555138,9.25026073 6.6828834,7.5792 C6.97397826,6.21848745 7.26991502,4.85874656 7.5648834,3.49881134 C7.75952767,2.6017749 7.94700593,1.70318381 8.15540119,0.80925668 C8.27412451,0.299135223 8.4091166,0.199442915 8.95489526,0.196722267 C10.3747332,0.189531984 11.7945711,0.189531984 13.2142154,0.196722267 C13.7361719,0.199248583 13.8649664,0.345386235 13.7365593,0.828495547 C13.3542431,2.26635789 13.0885198,3.7289004 12.7821245,5.1834753 C12.4757292,6.63746721 12.1460929,8.08679514 11.8242036,9.53767773 C11.37933,11.5431838 11.0252905,13.5706494 10.4603379,15.5472 C10.0123656,17.1140988 9.44605731,18.6277506 8.26540909,19.8285279 C7.44712846,20.6608518 6.45686364,21.0512648 5.32172925,21.2360745 C4.52455929,21.3656939 3.73533004,21.3596696 3.07973715,21.3757992" id="Fill-4" fill="#121B28" mask="url(#mask-4)"></path>
                </g>
                <g id="Group-9" transform="translate(0.000000, 0.013409)">
                    <mask id="mask-6" fill="white">
                        <use xlink:href="#path-5"></use>
                    </mask>
                    <g id="Clip-8"></g>
                    <path d="M22.0749261,4.49528745 C21.3174597,4.11595142 20.5780051,3.71251822 19.7430684,3.49408907 C19.0377008,3.30947368 18.3319458,3.16625101 17.6095348,3.12369231 C17.0308312,3.08968421 16.4486415,3.1102834 15.8680012,3.11222672 C15.2007877,3.1145587 14.533768,3.1157247 13.8866968,3.32365992 C13.2632542,3.52382186 12.616183,3.66354656 12.014432,3.91423482 C10.4042107,4.58506883 8.92762569,5.46111741 7.60520672,6.63585425 C5.54546364,8.46548988 4.11555455,10.6641619 3.29088261,13.2886154 C2.77725415,14.9229474 2.5969419,16.5996437 2.75168893,18.283336 C2.92774032,20.1949798 3.57074427,21.9643725 4.84396957,23.4531498 C4.89742411,23.5155304 4.97896166,23.6474818 4.96695375,23.65817 C4.84183913,23.7728259 4.74461383,23.6754656 4.64099723,23.5971498 C3.22387075,22.5232713 2.09106047,21.1806316 1.29176008,19.6133441 C0.712475494,18.4774737 0.26082332,17.2541538 0.183933992,15.9393036 C0.160111858,15.5312065 0.00129762846,15.1501215 -5.81027668e-05,14.7229798 C-0.00509367589,12.9963401 0.282127668,11.3202267 0.794206719,9.68317409 C1.32797747,7.97577328 2.23050711,6.47980567 3.4587996,5.17544939 C4.13685889,4.45564372 4.79768103,3.69833198 5.58729763,3.12291498 C6.78034111,2.25347368 8.05298538,1.48955466 9.4625585,0.989149798 C11.4076455,0.298493927 13.4121909,0.0549959514 15.4543095,0.241165992 C16.1230723,0.302186235 16.7835071,0.531497976 17.4412304,0.740793522 C18.2682265,1.00391903 19.0144597,1.37062348 19.7304794,1.82574899 C20.7445664,2.47093117 21.5053253,3.38876113 22.2804162,4.28774089 C22.276349,4.42124696 22.2021711,4.48459919 22.0749261,4.49528745" id="Fill-7" fill="#1169AD" mask="url(#mask-6)"></path>
                </g>
                <path d="M23.0427439,11.3133474 C21.5820403,10.5274688 20.0144277,10.1347239 18.3765107,10.3597603 C16.2803565,10.6479547 14.3782656,11.4616227 12.8050364,12.9268858 C12.1492498,13.5374769 11.4996609,14.1599223 11.0055937,14.9226753 C10.284732,16.0352259 9.71977945,17.2006348 9.46412727,18.5255903 C9.33533281,19.193898 9.30356996,19.8507401 9.28342767,20.5198251 C9.23733281,22.063987 9.67930119,23.4552097 10.556653,24.7148696 C10.6312182,24.8217522 10.7212775,24.9356308 10.6033289,25.0473717 C10.4861549,25.1581409 10.3714988,25.0675822 10.2740798,24.9832421 C8.9200917,23.8094769 7.95326166,22.3910478 7.55758182,20.6185457 C7.26900474,19.3254607 7.30928933,18.0446186 7.51555415,16.7287968 C7.66507194,15.7750154 7.97030514,14.9098494 8.30633281,14.0254445 C8.52576759,13.4476955 8.86411937,12.945736 9.22590593,12.4962462 C10.906819,10.4064 13.0103328,8.86107206 15.6853842,8.43023806 C17.7495818,8.09773603 19.8064198,8.36999514 21.6141905,9.60419757 C21.8252972,9.7483919 22.0005739,9.94641619 22.1897953,10.1222866 C22.541898,10.449736 22.892064,10.7791287 23.2430047,11.1077441 C23.2431984,11.2418332 23.163404,11.2976065 23.0427439,11.3133474" id="Fill-10" fill="#1169AD"></path>
                <path d="M21.2475427,25.306766 C20.5379142,25.306766 19.8280921,25.3133733 19.1186573,25.304434 C18.6212976,25.2982154 18.5052858,25.1849198 18.6147126,24.7496162 C18.9077443,23.58343 19.2003885,22.418604 19.3954202,21.2298753 C19.4556534,20.8635595 19.7603055,20.6338591 20.14727,20.6313328 C21.5663332,20.6221992 22.9857838,20.6204502 24.4050407,20.6315271 C24.8915545,20.6356081 25.0739972,20.8532599 24.9477206,21.2895352 C24.6308668,22.3853733 24.4124004,23.5012275 24.2045862,24.6207741 C24.0967087,25.2020211 23.9799221,25.2972437 23.3764281,25.3046283 C22.6667996,25.3131789 21.9571711,25.3065717 21.2475427,25.306766" id="Fill-12" fill="#121B28"></path>
                <path d="M23.4262996,16.9550575 C22.1484261,16.4459077 20.8542838,16.3862478 19.5537502,16.8483692 C17.6712206,17.5174543 16.2852759,18.757681 15.5156079,20.6083045 C15.1807423,21.4136162 14.8464577,22.2579887 14.9303194,23.1682397 C14.9909399,23.8264421 15.1214775,24.4751223 15.4842324,25.0509279 C15.5080545,25.089017 15.469513,25.1667498 15.4600229,25.2260211 C15.4102482,25.2174704 15.34343,25.226604 15.3132166,25.1976486 C14.6380625,24.5481911 14.0796949,23.8122559 13.9638767,22.8576972 C13.921268,22.5073166 13.7498648,22.208434 13.7457976,21.8395919 C13.7295289,20.3939563 14.1509676,19.0684178 15.0041099,17.9585879 C15.8566711,16.8495352 16.8998095,15.9387012 18.3272008,15.5024259 C20.2959162,14.9007741 21.9803154,15.2433814 23.4681336,16.648596 C23.5124854,16.6903773 23.5746553,16.7133085 23.6284972,16.7451789 C23.6294656,16.8814057 23.545604,16.9352356 23.4262996,16.9550575" id="Fill-14" fill="#1269AE"></path>
                <path d="M23.0427439,11.3133474 C23.163404,11.2976065 23.2431984,11.2418332 23.2430047,11.1077441 C23.6220285,11.2838089 23.836234,11.6435174 24.1323644,11.9116955 C24.2020877,11.9746591 24.2042182,12.0216874 24.1220996,12.0459789 C24.0649652,12.0628858 23.9795542,12.0908696 23.9460482,12.0642462 C23.6400403,11.8201652 23.3427478,11.5652016 23.0427439,11.3133474" id="Fill-16" fill="#8BB6D7"></path>
                <path d="M22.0749261,4.50869636 C22.2021711,4.4980081 22.276349,4.43465587 22.2804162,4.3011498 C22.5556296,4.40744939 22.7032107,4.66241296 22.9063767,4.85149798 C22.9482107,4.89036437 23.1076059,4.95449393 22.954602,5.05068826 C22.9088945,5.07964372 22.8070209,5.09402429 22.7804874,5.06662348 C22.5687996,4.84897166 22.1603372,4.8820081 22.0749261,4.50869636" id="Fill-18" fill="#7FAED3"></path>
                <path d="M23.4262996,16.9550575 C23.545604,16.9352356 23.6294656,16.8814057 23.6284972,16.7451789 C23.9401217,16.8549765 24.0964182,17.1441425 24.3239874,17.3513004 C24.3937107,17.4146526 24.3964221,17.4620696 24.3152719,17.4867498 C24.2579439,17.5040453 24.1744696,17.5318348 24.1380585,17.5054057 C23.8955763,17.3293409 23.6623905,17.1400615 23.4262996,16.9550575" id="Fill-20" fill="#8AB4D6"></path>
            </g>
        </g>
    </g>
</svg>
