<?xml version="1.0" encoding="utf-8"?>
<!-- Generator: Adobe Illustrator 25.0.1, SVG Export Plug-In . SVG Version: 6.00 Build 0)  -->
<svg width="34" height="48" version="1.1" id="Layer_1" xmlns="http://www.w3.org/2000/svg" xmlns:xlink="http://www.w3.org/1999/xlink" x="0px" y="0px"
	 viewBox="0 0 34 48" enable-background="new 0 0 34 48" xml:space="preserve">
<g id="Page-1">
	<g id="shockolada" transform="translate(-1042.000000, -1424.000000)">
		<g id="Group-8" transform="translate(1042.000000, 1424.000000)">
			<polygon id="Fill-1" fill-rule="evenodd" clip-rule="evenodd" fill="#E5A329" points="16.9,9.7 0,9.7 3.2,43.9 16.9,47.7
				30.6,43.9 33.8,9.7 			"/>
			<polygon id="Fill-2" fill-rule="evenodd" clip-rule="evenodd" fill="#F0BE22" points="16.9,12.5 16.9,44.8 28,41.7 30.7,12.5
				"/>
			<polygon id="Fill-3" fill-rule="evenodd" clip-rule="evenodd" fill="#FEFEFE" points="25.8,16.7 8.6,16.7 7.5,29.5 7.5,29.4
				22,29.4 21.5,34.8 16.9,36.1 12.2,34.8 11.9,31.5 7.6,31.5 8.3,38.1 16.9,40.5 25.6,38.1 26.7,25.2 11.3,25.2 11.5,20.9
				22.2,20.9 22.4,23.4 26.7,23.4 			"/>
			<path id="Fill-4" fill-rule="evenodd" clip-rule="evenodd" fill="#EAEAEA" d="M11.9,31.5H7.6l0.6,6.5l8.7,2.4v-4.4l-4.7-1.3
				L11.9,31.5z M16.9,16.7H8.6L7.5,29.5l0-0.1h9.4v-4.2h-5l0.2-4.3h4.8V16.7z"/>
			<polygon id="Fill-5" fill-rule="evenodd" clip-rule="evenodd" fill="#231F20" points="13.6,0.4 13.6,4.7 10.6,4.7 10.6,6.8
				13.6,6.8 15.2,6.8 15.8,6.8 15.8,0.4 			"/>
			<path id="Fill-6" fill-rule="evenodd" clip-rule="evenodd" fill="#231F20" d="M23.2,0.4H18v2.2c0.7,0.7,1.1,1,2.1,2
				c-0.6,0-2.1,0-2.1,0v2h5.2v-2l-2.1-2h2.1V0.4z"/>
		</g>
	</g>
</g>
</svg>
