<svg width="34" height="48" viewBox="0 0 34 48" fill="none" xmlns="http://www.w3.org/2000/svg">
<g clip-path="url(#clip0)">
<path d="M17 36C26.3888 36 34 28.3888 34 19C34 9.61116 26.3888 2 17 2C7.61116 2 0 9.61116 0 19C0 28.3888 7.61116 36 17 36Z" fill="#20232A"/>
<path d="M16.9 21.3C18.2 21.3 19.2 20.3 19.2 19C19.2 17.7 18.2 16.7 16.9 16.7C15.6 16.7 14.6 17.7 14.6 19C14.6 20.3 15.6 21.3 16.9 21.3Z" fill="#61DAFB"/>
<path d="M29.8 19C29.8 17.3 27.7 15.6 24.3 14.7C24.5 14.2 24.6 13.6 24.7 13.1C25.2 10.4 24.7 8.60001 23.4 7.90001C21.8 7.00001 19.5 8.10001 17 10.6C14.5 8.20001 12.1 7.20001 10.5 8.00001C8.89998 8.90001 8.69998 11.5 9.59998 14.9C6.19998 15.8 4.09998 17.4 4.09998 19.2C4.09998 21 6.19998 22.6 9.59998 23.5C8.79998 26.9 8.99998 29.5 10.5 30.4C10.9 30.6 11.2 30.7 11.7 30.7C13.2 30.7 15.1 29.6 16.8 27.8C18.7 29.7 20.5 30.7 21.9 30.7C22.4 30.7 22.7 30.6 23.1 30.4C24.7 29.5 24.9 26.9 24 23.5C27.6 22.4 29.8 20.8 29.8 19ZM22.9 8.60001C23.8 9.10001 24.2 10.7 23.8 13C23.7 13.5 23.6 14.1 23.4 14.6C22.3 14.3 21 14.1 19.7 14C19 13.1 18.1 12.1 17.3 11.3C19.1 9.60001 20.8 8.60001 22 8.60001C22.4 8.40001 22.7 8.50001 22.9 8.60001ZM20.7 21.2C20.2 21.9 19.9 22.7 19.4 23.2C18.7 23.3 17.8 23.3 16.9 23.3C16.1 23.3 15.3 23.3 14.4 23.2C13.9 22.6 13.5 21.8 13.1 21.2C12.6 20.5 12.3 19.7 12 19C12.3 18.4 12.7 17.5 13.1 16.8C13.6 16.1 13.9 15.3 14.4 14.8C15.1 14.7 16 14.7 16.9 14.7C17.7 14.7 18.5 14.7 19.4 14.8C19.9 15.4 20.3 16.2 20.7 16.8C21.2 17.5 21.5 18.3 21.8 19C21.5 19.7 21.1 20.4 20.7 21.2ZM22.2 19.9C22.7 20.9 22.9 21.8 23.3 22.7C22.4 22.9 21.4 23.1 20.4 23.2C20.7 22.7 21 22.1 21.4 21.6C21.7 21 22 20.4 22.2 19.9ZM16.9 26.4C16.3 25.8 15.6 24.9 15 24.1C15.6 24.1 16.2 24.2 16.9 24.2C17.5 24.2 18.2 24.2 18.8 24.1C18.2 24.9 17.5 25.7 16.9 26.4ZM13.5 23.2C12.4 23 11.5 22.9 10.6 22.7C10.9 21.8 11.2 20.9 11.7 19.9C12 20.4 12.3 21 12.6 21.5C12.8 22.1 13.2 22.6 13.5 23.2ZM11.6 18.2C11.1 17.2 10.9 16.3 10.5 15.4C11.4 15.2 12.4 15 13.4 14.9C13.1 15.4 12.8 16 12.4 16.5C12.1 17 11.9 17.5 11.6 18.2ZM16.9 11.6C17.5 12.2 18.2 13.1 18.8 13.9C18.2 13.9 17.5 13.8 16.9 13.8C16.3 13.8 15.6 13.8 15 13.9C15.6 13 16.4 12.3 16.9 11.6ZM21.3 16.4C21 15.9 20.7 15.3 20.3 14.8C21.4 15 22.3 15.1 23.2 15.3C22.9 16.2 22.6 17.1 22.1 18.1C22 17.5 21.7 17 21.3 16.4ZM11 8.60001C11.2 8.50001 11.5 8.40001 11.8 8.40001C13 8.40001 14.7 9.30001 16.5 11.1C15.8 11.9 14.9 12.9 14.1 14C12.7 14.2 11.5 14.3 10.4 14.6C9.59998 11.5 9.79998 9.20001 11 8.60001ZM4.79998 19C4.79998 17.7 6.59998 16.3 9.69998 15.5C9.99998 16.6 10.4 17.8 11.1 19C10.6 20.2 10.1 21.4 9.69998 22.5C6.79997 21.6 4.79998 20.3 4.79998 19ZM11 29.5C9.89998 28.9 9.59998 26.6 10.5 23.5C11.6 23.8 12.9 24 14.2 24.1C14.9 25.2 15.8 26.1 16.6 27C14.1 29.1 12.1 30 11 29.5ZM22.9 29.5C21.8 30.1 19.7 29.2 17.4 27C18.1 26.2 19 25.2 19.8 24.1C21.2 23.9 22.4 23.8 23.5 23.5C24.3 26.5 24 28.8 22.9 29.5ZM24 22.5C23.7 21.4 23.3 20.2 22.6 19C23.1 17.8 23.6 16.6 24 15.5C27.1 16.3 28.9 17.7 28.9 19C28.9 20.3 27.1 21.6 24 22.5Z" fill="#61DAFB"/>
<path d="M0 40.1H2.27C2.61667 40.1 2.92 40.15 3.18 40.25C3.44 40.35 3.65667 40.4867 3.83 40.66C4.01 40.8333 4.14333 41.0367 4.23 41.27C4.32333 41.5033 4.37 41.7567 4.37 42.03C4.37 42.2833 4.33 42.5067 4.25 42.7C4.17667 42.8933 4.08 43.0633 3.96 43.21C3.84 43.3567 3.70667 43.48 3.56 43.58C3.41333 43.6733 3.27 43.75 3.13 43.81L4.72 46.4H3.33L2.02 44.03H1.19V46.4H0V40.1ZM1.19 43.08H1.8C2.18 43.08 2.49333 43.0033 2.74 42.85C2.98667 42.69 3.11 42.4267 3.11 42.06C3.11 41.7267 3.01 41.4733 2.81 41.3C2.61667 41.1267 2.33 41.04 1.95 41.04H1.19V43.08Z" fill="black"/>
<path d="M9.6557 44.29H6.4257V44.33C6.4257 44.7633 6.55904 45.0867 6.8257 45.3C7.09904 45.5133 7.4557 45.62 7.8957 45.62C8.1557 45.62 8.3857 45.5967 8.5857 45.55C8.79237 45.5033 8.98904 45.44 9.1757 45.36L9.4057 46.19C9.21237 46.2767 8.98237 46.35 8.7157 46.41C8.44904 46.47 8.13904 46.5 7.7857 46.5C7.43237 46.5 7.09904 46.4533 6.7857 46.36C6.47904 46.2667 6.20904 46.12 5.9757 45.92C5.74237 45.72 5.5557 45.4667 5.4157 45.16C5.28237 44.8533 5.2157 44.4867 5.2157 44.06C5.2157 43.6867 5.27237 43.3467 5.3857 43.04C5.49904 42.7333 5.65904 42.47 5.8657 42.25C6.07237 42.03 6.32237 41.86 6.6157 41.74C6.90904 41.62 7.23237 41.56 7.5857 41.56C8.21904 41.56 8.72237 41.7533 9.0957 42.14C9.46904 42.5267 9.6557 43.0633 9.6557 43.75V44.29ZM8.4457 43.47C8.4457 43.33 8.42904 43.1967 8.3957 43.07C8.36237 42.9367 8.30904 42.82 8.2357 42.72C8.16237 42.62 8.0657 42.5433 7.9457 42.49C7.83237 42.43 7.6957 42.4 7.5357 42.4C7.2357 42.4 6.98904 42.5 6.7957 42.7C6.60237 42.9 6.4857 43.1633 6.4457 43.49L8.4457 43.47Z" fill="black"/>
<path d="M10.7024 42.07C10.9958 41.91 11.2924 41.7867 11.5924 41.7C11.8924 41.6067 12.2224 41.56 12.5824 41.56C12.8624 41.56 13.1158 41.5933 13.3424 41.66C13.5691 41.72 13.7658 41.82 13.9324 41.96C14.0991 42.1 14.2258 42.2833 14.3124 42.51C14.4058 42.73 14.4524 43 14.4524 43.32V46.4H13.5224L13.4024 45.9H13.3724C13.0324 46.3 12.5491 46.5 11.9224 46.5C11.4224 46.5 11.0324 46.37 10.7524 46.11C10.4724 45.8433 10.3324 45.5 10.3324 45.08C10.3324 44.8133 10.3891 44.5833 10.5024 44.39C10.6158 44.1967 10.7691 44.0367 10.9624 43.91C11.1624 43.7833 11.3991 43.69 11.6724 43.63C11.9458 43.5633 12.2424 43.53 12.5624 43.53H13.2624V43.2C13.2624 42.94 13.1858 42.7567 13.0324 42.65C12.8791 42.5367 12.6724 42.48 12.4124 42.48C12.2258 42.48 12.0258 42.51 11.8124 42.57C11.6058 42.63 11.3758 42.7333 11.1224 42.88L10.7024 42.07ZM13.2724 44.28L12.7324 44.3C12.2924 44.3133 11.9858 44.39 11.8124 44.53C11.6391 44.6633 11.5524 44.8267 11.5524 45.02C11.5524 45.2667 11.6258 45.4333 11.7724 45.52C11.9191 45.6067 12.0891 45.65 12.2824 45.65C12.4758 45.65 12.6591 45.6033 12.8324 45.51C13.0124 45.41 13.1591 45.2733 13.2724 45.1V44.28Z" fill="black"/>
<path d="M18.0424 45.62C18.2558 45.62 18.4424 45.5967 18.6024 45.55C18.7691 45.4967 18.9091 45.44 19.0224 45.38L19.2524 46.21C19.1058 46.2833 18.9124 46.35 18.6724 46.41C18.4324 46.47 18.1691 46.5 17.8824 46.5C17.5291 46.5 17.1991 46.45 16.8924 46.35C16.5858 46.2433 16.3191 46.0867 16.0924 45.88C15.8658 45.6733 15.6858 45.4167 15.5524 45.11C15.4258 44.8033 15.3624 44.4467 15.3624 44.04C15.3624 43.6667 15.4224 43.3267 15.5424 43.02C15.6691 42.7133 15.8424 42.4533 16.0624 42.24C16.2891 42.02 16.5558 41.8533 16.8624 41.74C17.1758 41.62 17.5191 41.56 17.8924 41.56C18.0991 41.56 18.3124 41.58 18.5324 41.62C18.7524 41.66 18.9891 41.74 19.2424 41.86L18.9924 42.7C18.8391 42.6133 18.6824 42.5467 18.5224 42.5C18.3624 42.4533 18.1958 42.43 18.0224 42.43C17.5824 42.43 17.2291 42.5667 16.9624 42.84C16.6958 43.1067 16.5624 43.4967 16.5624 44.01C16.5624 44.31 16.6058 44.5633 16.6924 44.77C16.7791 44.9767 16.8924 45.1433 17.0324 45.27C17.1724 45.3967 17.3291 45.4867 17.5024 45.54C17.6824 45.5933 17.8624 45.62 18.0424 45.62Z" fill="black"/>
<path d="M22.952 42.51H21.642V44.89C21.642 45.1167 21.6954 45.2733 21.802 45.36C21.9154 45.44 22.0587 45.48 22.232 45.48C22.3654 45.48 22.5054 45.4667 22.652 45.44C22.7987 45.4133 22.922 45.3767 23.022 45.33L23.202 46.17C23.0754 46.2233 22.902 46.2767 22.682 46.33C22.4687 46.3767 22.2387 46.4 21.992 46.4C21.452 46.4 21.062 46.29 20.822 46.07C20.5887 45.85 20.472 45.52 20.472 45.08V42.51H19.752V41.65H20.472V40.17H21.642V41.65H22.952V42.51Z" fill="black"/>
<path d="M27.7772 40.1V45.25C27.7772 45.7567 27.7472 46.1667 27.6872 46.48C27.6272 46.8 27.4972 47.0833 27.2972 47.33C27.0839 47.5967 26.8139 47.7833 26.4872 47.89C26.1605 47.9967 25.8172 48.05 25.4572 48.05V47.1C25.6439 47.1 25.8005 47.07 25.9272 47.01C26.0605 46.9567 26.1739 46.8833 26.2672 46.79C26.3872 46.6767 26.4639 46.53 26.4972 46.35C26.5372 46.17 26.5572 45.9733 26.5572 45.76V40.1H27.7772Z" fill="black"/>
<path d="M31.1492 40C31.5226 40 31.8592 40.0367 32.1592 40.11C32.4659 40.1767 32.7459 40.2733 32.9992 40.4L32.7192 41.34C32.4459 41.2067 32.1859 41.1067 31.9392 41.04C31.6926 40.9733 31.4492 40.94 31.2092 40.94C30.8692 40.94 30.6026 41.01 30.4092 41.15C30.2226 41.29 30.1292 41.48 30.1292 41.72C30.1292 41.9533 30.2059 42.1333 30.3592 42.26C30.5192 42.38 30.7726 42.4967 31.1192 42.61L31.7292 42.81C32.2492 42.9833 32.6459 43.2233 32.9192 43.53C33.1926 43.8367 33.3292 44.2 33.3292 44.62C33.3292 44.8933 33.2759 45.1433 33.1692 45.37C33.0626 45.5967 32.9092 45.7967 32.7092 45.97C32.5092 46.1367 32.2626 46.2667 31.9692 46.36C31.6826 46.4533 31.3559 46.5 30.9892 46.5C30.6292 46.5 30.2792 46.4667 29.9392 46.4C29.5992 46.3267 29.2726 46.2133 28.9592 46.06L29.2392 45.13C29.5259 45.27 29.8059 45.3767 30.0792 45.45C30.3526 45.5233 30.6392 45.56 30.9392 45.56C31.2992 45.56 31.5792 45.49 31.7792 45.35C31.9859 45.21 32.0892 45.0067 32.0892 44.74C32.0892 44.6467 32.0726 44.5567 32.0392 44.47C32.0059 44.3833 31.9459 44.3033 31.8592 44.23C31.7792 44.15 31.6659 44.0767 31.5192 44.01C31.3792 43.9367 31.1959 43.8633 30.9692 43.79L30.4092 43.6C29.9492 43.44 29.5792 43.23 29.2992 42.97C29.0259 42.7033 28.8892 42.33 28.8892 41.85C28.8892 41.2967 29.0826 40.85 29.4692 40.51C29.8559 40.17 30.4159 40 31.1492 40Z" fill="black"/>
</g>
<defs>
<clipPath id="clip0">
<rect width="34" height="48" fill="white"/>
</clipPath>
</defs>
</svg>
