<svg width="46" height="48" viewBox="0 0 46 48" fill="none" xmlns="http://www.w3.org/2000/svg">
<g clip-path="url(#clip0)">
<path d="M22.7 2C25.9 2 29 3 31.6 4.7C34.2 6.4 36.2 8.9 37.4 11.7C39.5 16.7 38.9 22.4 35.9 26.8C34.2 29.4 31.7 31.4 28.9 32.6C23.9 34.7 18.2 34.1 13.8 31.1C11.2 29.4 9.20001 26.9 8.00001 24.1C5.90001 19.1 6.50001 13.4 9.50001 9C11.2 6.4 13.7 4.4 16.5 3.2C18.4 2.4 20.5 2 22.7 2ZM22.7 1C13.3 1 5.70001 8.6 5.70001 18C5.70001 27.4 13.3 35 22.7 35C32.1 35 39.7 27.4 39.7 18C39.7 8.6 32.1 1 22.7 1Z" fill="#0073AA"/>
<path d="M8.5 18C8.5 23.4 11.6 28.4 16.5 30.8L9.7 12.2C8.9 14.1 8.5 16 8.5 18ZM32.2 17.3C32.2 15.5 31.6 14.3 31 13.4C30.5 12.4 29.6 11.2 29.6 10.1C29.6 9 30.6 7.6 32 7.6H32.2C26.4 2.3 17.5 2.7 12.2 8.5C11.7 9.1 11.2 9.7 10.8 10.3H11.7C13.2 10.3 15.5 10.1 15.5 10.1C16.3 10 16.3 11.2 15.6 11.3C15.6 11.3 14.8 11.4 14 11.4L19.2 26.8L22.3 17.5L20 11.3C19.2 11.2 18.5 11.2 18.5 11.2C17.7 11.1 17.8 10 18.6 10C18.6 10 20.9 10.2 22.3 10.2C23.7 10.2 26.1 10 26.1 10C26.9 9.9 26.9 11.1 26.2 11.2C26.2 11.2 25.4 11.3 24.6 11.3L29.7 26.5L31.2 21.9C31.8 19.9 32.2 18.5 32.2 17.3ZM22.9 19.2L18.7 31.6C21.6 32.4 24.6 32.4 27.4 31.4L27.3 31.2L22.9 19.2ZM35.1 11.2C35.2 11.7 35.2 12.2 35.2 12.7C35.2 14.1 34.9 15.8 34.1 17.8L29.8 30.3C36.4 26.4 38.8 17.9 35.1 11.2Z" fill="#0073AA"/>
<path d="M1.25 39.82L2.06 43C2.08 43.0867 2.10667 43.2067 2.14 43.36C2.17333 43.5133 2.20667 43.6767 2.24 43.85C2.27333 44.0167 2.30333 44.1867 2.33 44.36C2.36333 44.5267 2.38667 44.67 2.4 44.79H2.42C2.44 44.6633 2.46333 44.5167 2.49 44.35C2.52333 44.1833 2.55667 44.0167 2.59 43.85C2.63 43.6767 2.66667 43.5167 2.7 43.37C2.73333 43.2167 2.76 43.0933 2.78 43L3.64 39.82H4.87L5.73 42.99C5.75 43.0767 5.77667 43.1967 5.81 43.35C5.85 43.5033 5.88667 43.6667 5.92 43.84C5.95333 44.0133 5.98667 44.1867 6.02 44.36C6.05333 44.5267 6.08 44.67 6.1 44.79H6.12C6.14 44.67 6.16667 44.5267 6.2 44.36C6.23333 44.1933 6.26667 44.0267 6.3 43.86C6.33333 43.6867 6.36667 43.5233 6.4 43.37C6.43333 43.2167 6.46 43.09 6.48 42.99L7.26 39.82H8.49L6.8 46.12H5.5L4.63 42.81C4.55667 42.5367 4.49 42.2733 4.43 42.02C4.37 41.76 4.30667 41.4833 4.24 41.19H4.22C4.16 41.49 4.10333 41.7633 4.05 42.01C3.99667 42.2567 3.93333 42.52 3.86 42.8L3.02 46.12H1.73L0 39.82H1.25Z" fill="black"/>
<path d="M13.5668 43.71C13.5668 44.1033 13.5035 44.4567 13.3768 44.77C13.2568 45.0833 13.0868 45.3467 12.8668 45.56C12.6468 45.7733 12.3901 45.9367 12.0968 46.05C11.8035 46.1633 11.4868 46.22 11.1468 46.22C10.8068 46.22 10.4901 46.1667 10.1968 46.06C9.91013 45.9533 9.66013 45.8 9.4468 45.6C9.23346 45.3933 9.0668 45.14 8.9468 44.84C8.8268 44.54 8.7668 44.1967 8.7668 43.81C8.7668 43.41 8.8268 43.0533 8.9468 42.74C9.07346 42.42 9.2468 42.1533 9.4668 41.94C9.6868 41.7267 9.94346 41.5633 10.2368 41.45C10.5301 41.3367 10.8468 41.28 11.1868 41.28C11.5268 41.28 11.8401 41.3333 12.1268 41.44C12.4201 41.54 12.6735 41.6933 12.8868 41.9C13.1001 42.1067 13.2668 42.36 13.3868 42.66C13.5068 42.96 13.5668 43.31 13.5668 43.71ZM12.3468 43.76C12.3468 43.4733 12.3135 43.23 12.2468 43.03C12.1801 42.8233 12.0901 42.6567 11.9768 42.53C11.8701 42.4033 11.7435 42.31 11.5968 42.25C11.4568 42.19 11.3101 42.16 11.1568 42.16C11.0035 42.16 10.8568 42.1867 10.7168 42.24C10.5768 42.2867 10.4535 42.3733 10.3468 42.5C10.2401 42.62 10.1535 42.7833 10.0868 42.99C10.0201 43.1967 9.9868 43.4533 9.9868 43.76C9.9868 44.04 10.0201 44.28 10.0868 44.48C10.1535 44.6733 10.2401 44.8367 10.3468 44.97C10.4601 45.0967 10.5868 45.19 10.7268 45.25C10.8735 45.31 11.0235 45.34 11.1768 45.34C11.3235 45.34 11.4668 45.3133 11.6068 45.26C11.7535 45.2067 11.8801 45.12 11.9868 45C12.0935 44.88 12.1801 44.72 12.2468 44.52C12.3135 44.3133 12.3468 44.06 12.3468 43.76Z" fill="black"/>
<path d="M14.5444 46.12V41.37H15.4544L15.6044 42.26C15.7177 41.9867 15.8977 41.7567 16.1444 41.57C16.391 41.3767 16.6977 41.28 17.0644 41.28C17.2244 41.28 17.3644 41.2967 17.4844 41.33C17.6044 41.3633 17.7044 41.4 17.7844 41.44L17.5844 42.4C17.511 42.36 17.421 42.3267 17.3144 42.3C17.2077 42.2667 17.0777 42.25 16.9244 42.25C16.5844 42.25 16.2977 42.3667 16.0644 42.6C15.831 42.8333 15.7144 43.2033 15.7144 43.71V46.12H14.5444Z" fill="black"/>
<path d="M21.1795 39H22.3595V46.12H21.4795L21.3495 45.6H21.3095C21.1562 45.78 20.9695 45.93 20.7495 46.05C20.5295 46.1633 20.2462 46.22 19.8995 46.22C19.6195 46.22 19.3529 46.1667 19.0995 46.06C18.8462 45.9533 18.6229 45.7967 18.4295 45.59C18.2429 45.3767 18.0929 45.1167 17.9795 44.81C17.8729 44.5033 17.8195 44.15 17.8195 43.75C17.8195 43.3767 17.8662 43.04 17.9595 42.74C18.0595 42.4333 18.2029 42.1733 18.3895 41.96C18.5762 41.74 18.8029 41.5733 19.0695 41.46C19.3429 41.34 19.6495 41.28 19.9895 41.28C20.2229 41.28 20.4429 41.3167 20.6495 41.39C20.8629 41.4567 21.0395 41.5533 21.1795 41.68V39ZM21.1795 42.59C21.0662 42.4567 20.9329 42.35 20.7795 42.27C20.6262 42.19 20.4562 42.15 20.2695 42.15C20.1029 42.15 19.9429 42.18 19.7895 42.24C19.6429 42.2933 19.5095 42.3833 19.3895 42.51C19.2762 42.6367 19.1829 42.8 19.1095 43C19.0429 43.2 19.0095 43.44 19.0095 43.72C19.0095 44 19.0395 44.2433 19.0995 44.45C19.1662 44.6567 19.2529 44.8267 19.3595 44.96C19.4662 45.0867 19.5895 45.1833 19.7295 45.25C19.8762 45.31 20.0295 45.34 20.1895 45.34C20.4095 45.34 20.6029 45.29 20.7695 45.19C20.9362 45.0833 21.0729 44.9467 21.1795 44.78V42.59Z" fill="black"/>
<path d="M23.7266 39.82H25.8566C26.21 39.82 26.53 39.8633 26.8166 39.95C27.1033 40.0367 27.35 40.1633 27.5566 40.33C27.7633 40.49 27.92 40.69 28.0266 40.93C28.14 41.1633 28.1966 41.4333 28.1966 41.74C28.1966 42.0933 28.1333 42.3967 28.0066 42.65C27.88 42.9033 27.7066 43.1167 27.4866 43.29C27.2666 43.4567 27.0066 43.58 26.7066 43.66C26.4066 43.74 26.0833 43.78 25.7366 43.78H24.9466V46.12H23.7266V39.82ZM24.9466 42.83H25.5066C25.7066 42.83 25.8933 42.8133 26.0666 42.78C26.24 42.7467 26.39 42.69 26.5166 42.61C26.65 42.53 26.7533 42.4233 26.8266 42.29C26.9 42.1567 26.9366 41.99 26.9366 41.79C26.9366 41.61 26.9033 41.4567 26.8366 41.33C26.77 41.1967 26.6766 41.09 26.5566 41.01C26.4433 40.9233 26.31 40.86 26.1566 40.82C26.0033 40.78 25.8433 40.76 25.6766 40.76H24.9466V42.83Z" fill="black"/>
<path d="M29.0952 46.12V41.37H30.0052L30.1552 42.26C30.2685 41.9867 30.4485 41.7567 30.6952 41.57C30.9418 41.3767 31.2485 41.28 31.6152 41.28C31.7752 41.28 31.9152 41.2967 32.0352 41.33C32.1552 41.3633 32.2552 41.4 32.3352 41.44L32.1352 42.4C32.0618 42.36 31.9718 42.3267 31.8652 42.3C31.7585 42.2667 31.6285 42.25 31.4752 42.25C31.1352 42.25 30.8485 42.3667 30.6152 42.6C30.3818 42.8333 30.2652 43.2033 30.2652 43.71V46.12H29.0952Z" fill="black"/>
<path d="M36.8491 44.01H33.6191V44.05C33.6191 44.4833 33.7525 44.8067 34.0191 45.02C34.2925 45.2333 34.6491 45.34 35.0891 45.34C35.3491 45.34 35.5791 45.3167 35.7791 45.27C35.9858 45.2233 36.1825 45.16 36.3691 45.08L36.5991 45.91C36.4058 45.9967 36.1758 46.07 35.9091 46.13C35.6425 46.19 35.3325 46.22 34.9791 46.22C34.6258 46.22 34.2925 46.1733 33.9791 46.08C33.6725 45.9867 33.4025 45.84 33.1691 45.64C32.9358 45.44 32.7491 45.1867 32.6091 44.88C32.4758 44.5733 32.4091 44.2067 32.4091 43.78C32.4091 43.4067 32.4658 43.0667 32.5791 42.76C32.6925 42.4533 32.8525 42.19 33.0591 41.97C33.2658 41.75 33.5158 41.58 33.8091 41.46C34.1025 41.34 34.4258 41.28 34.7791 41.28C35.4125 41.28 35.9158 41.4733 36.2891 41.86C36.6625 42.2467 36.8491 42.7833 36.8491 43.47V44.01ZM35.6391 43.19C35.6391 43.05 35.6225 42.9167 35.5891 42.79C35.5558 42.6567 35.5025 42.54 35.4291 42.44C35.3558 42.34 35.2591 42.2633 35.1391 42.21C35.0258 42.15 34.8891 42.12 34.7291 42.12C34.4291 42.12 34.1825 42.22 33.9891 42.42C33.7958 42.62 33.6791 42.8833 33.6391 43.21L35.6391 43.19Z" fill="black"/>
<path d="M40.6259 42.43C40.2325 42.2433 39.8492 42.15 39.4759 42.15C39.2292 42.15 39.0392 42.1933 38.9059 42.28C38.7792 42.3667 38.7159 42.4867 38.7159 42.64C38.7159 42.7667 38.7692 42.8767 38.8759 42.97C38.9825 43.0567 39.1959 43.1467 39.5159 43.24L39.8159 43.33C40.2425 43.4567 40.5625 43.63 40.7759 43.85C40.9959 44.07 41.1059 44.36 41.1059 44.72C41.1059 45.18 40.9325 45.5467 40.5859 45.82C40.2392 46.0867 39.7659 46.22 39.1659 46.22C38.5192 46.22 37.9825 46.1133 37.5559 45.9L37.8159 45.02C38.0092 45.1133 38.2125 45.19 38.4259 45.25C38.6459 45.31 38.8725 45.34 39.1059 45.34C39.6592 45.34 39.9359 45.1633 39.9359 44.81C39.9359 44.65 39.8692 44.53 39.7359 44.45C39.6092 44.37 39.3892 44.2833 39.0759 44.19L38.7659 44.09C38.3525 43.9567 38.0459 43.7833 37.8459 43.57C37.6525 43.35 37.5559 43.0633 37.5559 42.71C37.5559 42.5033 37.5992 42.3133 37.6859 42.14C37.7725 41.96 37.8925 41.8067 38.0459 41.68C38.2059 41.5533 38.3959 41.4567 38.6159 41.39C38.8425 41.3167 39.0925 41.28 39.3659 41.28C39.6392 41.28 39.9025 41.3067 40.1559 41.36C40.4159 41.4067 40.6559 41.48 40.8759 41.58L40.6259 42.43Z" fill="black"/>
<path d="M44.8739 42.43C44.4806 42.2433 44.0972 42.15 43.7239 42.15C43.4772 42.15 43.2872 42.1933 43.1539 42.28C43.0272 42.3667 42.9639 42.4867 42.9639 42.64C42.9639 42.7667 43.0172 42.8767 43.1239 42.97C43.2306 43.0567 43.4439 43.1467 43.7639 43.24L44.0639 43.33C44.4906 43.4567 44.8106 43.63 45.0239 43.85C45.2439 44.07 45.3539 44.36 45.3539 44.72C45.3539 45.18 45.1806 45.5467 44.8339 45.82C44.4872 46.0867 44.0139 46.22 43.4139 46.22C42.7672 46.22 42.2306 46.1133 41.8039 45.9L42.0639 45.02C42.2572 45.1133 42.4606 45.19 42.6739 45.25C42.8939 45.31 43.1206 45.34 43.3539 45.34C43.9072 45.34 44.1839 45.1633 44.1839 44.81C44.1839 44.65 44.1172 44.53 43.9839 44.45C43.8572 44.37 43.6372 44.2833 43.3239 44.19L43.0139 44.09C42.6006 43.9567 42.2939 43.7833 42.0939 43.57C41.9006 43.35 41.8039 43.0633 41.8039 42.71C41.8039 42.5033 41.8472 42.3133 41.9339 42.14C42.0206 41.96 42.1406 41.8067 42.2939 41.68C42.4539 41.5533 42.6439 41.4567 42.8639 41.39C43.0906 41.3167 43.3406 41.28 43.6139 41.28C43.8872 41.28 44.1506 41.3067 44.4039 41.36C44.6639 41.4067 44.9039 41.48 45.1239 41.58L44.8739 42.43Z" fill="black"/>
</g>
<defs>
<clipPath id="clip0">
<rect width="45.3" height="48" fill="white"/>
</clipPath>
</defs>
</svg>
